<?xml version="1.0" encoding="utf-8"?>
<!-- Generator: Adobe Illustrator 19.0.0, SVG Export Plug-In . SVG Version: 6.00 Build 0)  -->
<!DOCTYPE svg PUBLIC "-//W3C//DTD SVG 1.1//EN" "http://www.w3.org/Graphics/SVG/1.1/DTD/svg11.dtd">
<svg version="1.1" id="Layer_1" xmlns="http://www.w3.org/2000/svg" xmlns:xlink="http://www.w3.org/1999/xlink" x="0px" y="0px"
	 viewBox="-154 231.2 189.2 38.8" style="enable-background:new -154 231.2 189.2 38.8;" xml:space="preserve">
<style type="text/css">
	.st0{fill:#FFFFFF;}
	.st1{clip-path:url(#SVGID_2_);fill:#FFFFFF;}
</style>
<path class="st0" d="M-6.1,238.9c-3.1-0.1-4.8,2.2-5.4,4.1c-0.8,2.8,0.6,4.7,2.2,4.7c1.1,0,2.2-0.5,3.3-2.2h0.1
	c-0.3,1.1-0.2,2.1,1,2.1c0.8,0,1.4-0.8,2.1-2l-0.3-0.2c-0.6,0.7-0.9,1.2-1.2,1.2c-0.4,0-0.3-0.5-0.2-0.7l1.7-7.3
	c0.1-0.5,0.6-2.5,1.2-3.6v-0.1l-2.9,0.3l-0.1,0.2l0.5,0.5c0.1,0.1,0.2,0.3,0.1,0.6l-0.6,2.7C-5.1,239-5.6,238.9-6.1,238.9
	L-6.1,238.9z M-5.2,241.7c-0.7,3-2.2,4.6-3.4,4.6s-1.8-1.5-1.1-3.5c0.5-1.5,1.9-2.9,3.5-2.9c0.5,0,1,0.1,1.4,0.2
	C-4.8,240.1-5.2,241.7-5.2,241.7z M-19.8,244.9c0.7-3,2.2-4.6,3.4-4.6s1.1,0.9,0.7,2.4l-0.6,2.8c-0.3,1.3,0,2.1,1.1,2.1
	c0.9,0,1.5-0.8,2.2-2l-0.3-0.2c-0.6,0.7-0.9,1.2-1.2,1.2c-0.4,0-0.3-0.5-0.2-0.7l0.8-3.3c0.6-2.5-0.2-3.7-1.8-3.7
	c-0.9,0-2.2,0.5-3.2,2H-19l0.2-0.8c0.3-1.1,0.2-1.2-0.2-1.2l-1.9,0.2l-0.1,0.2l0.5,0.5c0.1,0.1,0.2,0.3,0.1,0.6l-1.4,5.9
	c-0.1,0.3-0.1,0.6-0.3,0.7l-0.5,0.4v0.2h2c0.1,0,0.2-0.1,0.2-0.2C-20.4,247.4-19.8,244.9-19.8,244.9z M-25.3,241.7
	c-0.7,3-2.2,4.6-3.4,4.6c-1.2,0-1.8-1.5-1.1-3.5c0.5-1.5,1.9-2.9,3.5-2.9c0.5,0,1,0.1,1.4,0.2C-24.9,240.1-25.3,241.7-25.3,241.7z
	 M-23.7,241.5c0.1-0.4,0.2-0.9,0.7-1.6l0.1-0.1c-1.2-0.6-2.6-0.9-3.3-0.9c-3.1,0-4.8,2.2-5.4,4.1c-0.8,2.8,0.6,4.7,2.2,4.7
	c1.1,0,2.2-0.5,3.3-2.2h0.1c-0.3,1.1-0.2,2.1,1,2.1c0.8,0,1.4-0.8,2.1-2l-0.3-0.2c-0.6,0.7-0.9,1.2-1.2,1.2c-0.4,0-0.3-0.5-0.2-0.7
	C-24.6,245.9-23.7,241.5-23.7,241.5z M-43.9,244.9c0.7-3,2.2-4.6,3.4-4.6c1.2,0,1.1,0.9,0.7,2.4l-0.6,2.8c-0.3,1.3,0,2.1,1.1,2.1
	c0.9,0,1.5-0.8,2.2-2l-0.3-0.2c-0.6,0.7-0.9,1.2-1.2,1.2c-0.4,0-0.3-0.5-0.2-0.7l0.8-3.5c0.6-2.5-0.4-3.5-1.8-3.5
	c-0.9,0-2.2,0.5-3.2,2l0.5-2.3c0.1-0.5,0.6-2.5,1.2-3.6v-0.1l-2.8,0.3c-0.1,0-0.2,0.1-0.1,0.2l0.5,0.5c0.1,0.2,0.2,0.3,0.1,0.6
	l-2.2,9.9c-0.1,0.3-0.1,0.6-0.3,0.7l-0.5,0.4l0.1,0.2h1.9c0.1,0,0.2-0.1,0.2-0.2C-44.4,247.5-43.9,244.9-43.9,244.9z M-48.3,240.1
	h2.3l0.3-1h-2.4l0.5-2.3l-1.8,0.6l-0.4,1.7H-51l-0.3,1h1.3l-1.2,5.2c-0.3,1.5,0,2.4,1.2,2.4c1,0,1.7-0.9,2.5-2.3l-0.3-0.2
	c-0.8,1.1-1.2,1.6-1.6,1.6c-0.5,0-0.4-0.7-0.3-1C-49.7,245.8-48.3,240.1-48.3,240.1z M-56.2,245.6c-0.3,1.3,0,2.1,1,2.1
	c0.9,0,1.5-0.8,2.1-2l-0.3-0.2c-0.6,0.7-0.9,1.2-1.2,1.2c-0.4,0-0.3-0.5-0.2-0.7l1.7-7.3c0.1-0.5,0.6-2.5,1.2-3.6V235l-2.7,0.2
	l-0.1,0.2l0.5,0.5c0.1,0.1,0.2,0.3,0.1,0.6C-54.1,236.5-56.2,245.6-56.2,245.6z M-59.9,241.7c-0.7,3-2.2,4.6-3.4,4.6
	c-1.2,0-1.8-1.5-1.1-3.5c0.5-1.5,1.9-2.9,3.5-2.9c0.5,0,1,0.1,1.4,0.2C-59.5,240.1-59.9,241.7-59.9,241.7z M-58.3,241.5
	c0.1-0.4,0.2-0.9,0.7-1.6l0.1-0.1c-1.2-0.6-2.6-0.9-3.3-0.9c-3.1,0-4.8,2.2-5.4,4.1c-0.8,2.8,0.6,4.7,2.2,4.7c1.1,0,2.2-0.5,3.3-2.2
	h0.1c-0.3,1.1-0.2,2.1,1,2.1c0.8,0,1.4-0.8,2.1-2l-0.3-0.2c-0.6,0.7-0.9,1.2-1.2,1.2c-0.4,0-0.3-0.5-0.2-0.7
	C-59.2,245.9-58.3,241.5-58.3,241.5z M-75.1,244.3c-0.1,2.1,1.3,3.4,3,3.4c1.3,0,2.8-0.7,4-2.5l-0.2-0.2c-1,1-2.2,1.5-3,1.5
	c-1.3,0-2.2-0.8-2-2.5c2.1-0.1,5.7-0.5,5.9-3c0.1-1.3-1.2-2.1-2.6-2.1C-72.3,238.9-74.8,241-75.1,244.3z M-70.2,240
	c0.5,0,1.1,0.3,1.1,1c-0.1,1.2-1.7,2-4.1,2.1C-72.8,241.6-71.7,240-70.2,240z M-78.8,242l-1,4.3l-0.3,0.6l-0.7,0.5
	c-0.1,0.1-0.1,0.2,0,0.2h3.4c0.1,0,0.1-0.1,0.1-0.2l-0.5-0.5c-0.1-0.2-0.2-0.3-0.2-0.6l2.1-9.3c0.1-0.2,0.2-0.4,0.4-0.6l0.7-0.5
	c0.1-0.1,0.1-0.2,0-0.2h-3.4c-0.1,0-0.1,0.1-0.1,0.2l0.5,0.5c0.1,0.1,0.2,0.3,0.1,0.6l-0.9,3.9h-5.5l0.9-3.9
	c0.1-0.2,0.2-0.4,0.4-0.6l0.7-0.5c0.1-0.1,0.1-0.2,0-0.2h-3.4c-0.1,0-0.1,0.1-0.1,0.2l0.5,0.5c0.1,0.1,0.2,0.3,0.1,0.6l-2.1,9.3
	c-0.1,0.2-0.2,0.4-0.4,0.6l-0.7,0.5c-0.1,0.1-0.1,0.2,0,0.2h3.4c0.1,0,0.1-0.1,0.1-0.2l-0.5-0.5c-0.1-0.2-0.2-0.3-0.1-0.6l1-4.3
	H-78.8z M32.5,257.7c-1.4,0-2.9,0.6-3,2.3c-0.2,2.4,3.2,2.5,3.2,4.1c0,0.9-0.8,1.4-1.9,1.4c-1.2,0-2.1-0.6-2.2-2h-0.2
	c-0.1,0.4-0.2,1.1-0.3,1.7v0.6c0.6,0.4,1.6,0.7,2.7,0.7c2.2,0,3.5-1,3.6-2.5c0.1-2.5-3.4-2.4-3.3-4.2c0-0.6,0.5-1.2,1.4-1.2
	c1.1,0,1.8,0.6,1.8,1.7h0.2c0.3-0.5,0.6-1.3,0.7-1.9C34.6,258,33.5,257.7,32.5,257.7z M19.9,263.1c-0.1,2.1,1.3,3.4,3,3.4
	c1.3,0,2.8-0.7,4-2.5l-0.2-0.2c-1,1-2.2,1.5-3,1.5c-1.3,0-2.2-0.8-2-2.5c2.1-0.1,5.7-0.5,5.9-3c0.1-1.3-1.2-2.1-2.6-2.1
	C22.7,257.7,20.1,259.8,19.9,263.1L19.9,263.1z M24.8,258.8c0.5,0,1.1,0.3,1.1,1c-0.1,1.2-1.7,2-4.1,2.1
	C22.2,260.4,23.2,258.8,24.8,258.8z M16.4,258.7c1.1,0,1.7,0.6,1.7,1.8h0.2c0.3-0.5,0.7-1.5,0.8-2.1c-0.6-0.4-1.6-0.7-2.5-0.7
	c-2.8,0-5.2,2.8-5.4,5.4c-0.2,2.2,1.3,3.4,3,3.4c1.4,0,2.8-0.7,4-2.5l-0.2-0.2c-1,1-2.2,1.6-3,1.6c-1.3,0-2.2-0.7-2-2.5
	C13.1,260.9,14.5,258.7,16.4,258.7z M6.7,264.3c-0.3,1.3,0,2.1,1,2.1c0.9,0,1.5-0.8,2.1-2l-0.3-0.2c-0.6,0.7-0.9,1.2-1.2,1.2
	c-0.4,0-0.3-0.5-0.2-0.7l0.8-3.2c0.1-0.5,0.6-2.5,1.2-3.6v-0.1l-2.8,0.3c-0.1,0-0.2,0.1-0.1,0.2l0.5,0.5c0.1,0.1,0.2,0.3,0.1,0.6
	C7.8,259.4,6.7,264.3,6.7,264.3z M8.5,255.6c0,0.6,0.4,1.1,0.9,1.1s1-0.5,1.1-1.1c0-0.6-0.4-1.1-0.9-1.1S8.5,255,8.5,255.6z
	 M0.7,258.5c-0.1-0.9-0.3-0.9-0.6-0.9l-1.8,0.2l-0.1,0.2l0.4,0.4c0.2,0.2,0.3,0.3,0.4,0.7c0.5,2.2,0.9,4.9,1.1,7.4l0.4-0.1
	c0.5-0.1,0.6-0.2,0.9-0.7c1.4-1.8,2.9-4.2,4.3-6.8c0.1-0.2,0.3-0.3,0.4-0.5l0.6-0.4c0.1-0.1,0.1-0.2,0-0.2H4.2L4.1,258l0.2,0.3
	c0.2,0.2,0.1,0.5-0.2,0.9c-0.8,1.7-1.9,3.5-2.9,4.9C1.2,262.2,1,260.2,0.7,258.5L0.7,258.5z M-3.3,259.8h0.2c0.3-0.6,0.7-1.4,0.8-2
	c-0.4-0.1-0.7-0.2-1.2-0.2c-0.9,0-2.1,0.5-3.2,2h-0.1l0.2-0.8c0.3-1.1,0.2-1.2-0.2-1.2l-1.9,0.2l-0.1,0.2l0.5,0.5
	c0.1,0.1,0.2,0.3,0.1,0.6l-1.4,6.2c-0.1,0.2-0.2,0.4-0.4,0.6l-0.4,0.3c-0.1,0.1-0.1,0.2,0,0.2h2.9l0.1-0.2l-0.5-0.5
	c-0.1-0.2-0.2-0.3-0.2-0.6l0.3-1.4c0.7-2.9,2.1-4.7,3.3-4.7C-3.9,259-3.4,259.2-3.3,259.8L-3.3,259.8z M-18,263.1
	c-0.1,2.1,1.3,3.4,3,3.4c1.3,0,2.8-0.7,4-2.5l-0.2-0.2c-1,1-2.2,1.5-3,1.5c-1.3,0-2.2-0.8-2-2.5c2.1-0.1,5.7-0.5,5.9-3
	c0.1-1.3-1.2-2.1-2.6-2.1C-15.2,257.7-17.8,259.8-18,263.1L-18,263.1z M-13.1,258.8c0.5,0,1.1,0.3,1.1,1c-0.1,1.2-1.7,2-4.1,2.1
	C-15.7,260.4-14.7,258.8-13.1,258.8z M-21.9,255.3c1.5,0,2.2,0.9,2.2,2h0.2c0.4-0.6,0.8-1.7,0.9-2.3c-0.6-0.3-1.9-0.7-3-0.7
	c-2.4,0-3.9,1.2-4,2.7c-0.4,3.3,4.3,3.7,4,6.2c-0.2,1.3-1.3,2.2-2.7,2.2c-1.6,0-2.4-0.7-2.6-2.5h-0.3c-0.2,0.8-0.4,2.1-0.4,2.7
	c0.4,0.4,1.8,0.9,3.2,0.9c1.9,0,4.2-1,4.5-3.4c0.4-3.6-4.2-3.7-4-6.3C-23.8,255.8-22.9,255.3-21.9,255.3L-21.9,255.3z M-39.2,263.6
	c0.7-3,2.2-4.6,3.4-4.6c1.2,0,1.1,0.9,0.7,2.4l-0.6,2.8c-0.3,1.3,0,2.1,1.1,2.1c0.9,0,1.5-0.8,2.2-2l-0.3-0.2
	c-0.6,0.7-0.9,1.2-1.2,1.2c-0.4,0-0.3-0.5-0.2-0.7l0.8-3.3c0.6-2.5-0.2-3.7-1.8-3.7c-0.9,0-2.2,0.5-3.2,2h-0.1l0.2-0.8
	c0.3-1.1,0.2-1.2-0.2-1.2l-1.9,0.2l-0.1,0.2l0.5,0.5c0.1,0.1,0.2,0.3,0.1,0.6l-1.4,5.9c-0.1,0.3-0.1,0.6-0.3,0.7l-0.5,0.4v0.2h2
	c0.1,0,0.2-0.1,0.2-0.2C-39.8,266.1-39.2,263.6-39.2,263.6z M-44.8,260.5c-0.7,3-2.2,4.6-3.4,4.6c-1.2,0-1.8-1.5-1.1-3.5
	c0.5-1.5,1.9-2.9,3.5-2.9c0.5,0,1,0.1,1.4,0.2C-44.4,258.9-44.8,260.5-44.8,260.5z M-43.1,260.2c0.1-0.4,0.2-0.9,0.7-1.6l0.1-0.1
	c-1.2-0.6-2.6-0.9-3.3-0.9c-3.1,0-4.8,2.2-5.4,4.1c-0.8,2.8,0.6,4.7,2.2,4.7c1.1,0,2.2-0.5,3.3-2.2h0.1c-0.3,1.1-0.2,2.1,1,2.1
	c0.8,0,1.4-0.8,2.1-2l-0.3-0.2c-0.6,0.7-0.9,1.2-1.2,1.2c-0.4,0-0.3-0.5-0.2-0.7C-44,264.6-43.1,260.2-43.1,260.2z M-64.2,266.3
	c0.1,0,0.2-0.1,0.2-0.2l0.8-3.5c0.5-2,1.8-3.6,2.8-3.6c0.8,0,1,0.5,0.7,1.6l-1.2,5.6c0,0.1,0,0.1,0.1,0.1h1.3c0.1,0,0.2-0.1,0.2-0.2
	l0.8-3.5c0.4-2,1.8-3.6,2.8-3.6c0.8,0,1,0.5,0.7,1.6l-0.8,3.6c-0.3,1.3,0,2.1,1.1,2.1c0.9,0,1.5-0.8,2.2-2l-0.3-0.2
	c-0.6,0.7-0.9,1.2-1.2,1.2c-0.4,0-0.3-0.5-0.2-0.7l0.8-3.5c0.6-2.5-0.3-3.5-1.6-3.5c-1,0-2,0.6-2.9,2l-0.1,0.2
	c0.2-1.3-0.3-2.2-1.7-2.2c-1,0-2,0.6-2.9,2l0.2-0.8c0.3-1.1,0.2-1.2-0.2-1.2l-1.9,0.2l-0.1,0.2l0.5,0.5c0.1,0.1,0.2,0.3,0.1,0.6
	l-1.4,5.9c-0.1,0.3-0.1,0.6-0.3,0.7l-0.5,0.4v0.2C-66.2,266.3-64.2,266.3-64.2,266.3z M-69,260.5c-0.7,3-2.2,4.6-3.4,4.6
	c-1.2,0-1.1-0.9-0.7-2.4l0.9-3.8c0.3-1.1,0.2-1.2-0.2-1.2l-2.1,0.2l-0.1,0.2l0.5,0.5c0.1,0.1,0.2,0.3,0.1,0.6l-0.9,3.7
	c-0.6,2.5,0.2,3.7,1.8,3.7c1,0,2.2-0.6,3.3-2.2h0.1c-0.3,1.1-0.2,2.1,1,2.1c0.8,0,1.4-0.8,2.1-2l-0.3-0.2c-0.6,0.7-0.9,1.2-1.2,1.2
	c-0.4,0-0.3-0.5-0.2-0.7l1.6-7c0-0.1,0-0.1-0.1-0.1l-1.4,0.1c-0.1,0-0.2,0.1-0.2,0.2L-69,260.5L-69,260.5z M-78.8,260.8l-1,4.3
	l-0.3,0.6l-0.7,0.5c-0.1,0.1-0.1,0.2,0,0.2h3.4c0.1,0,0.1-0.1,0.1-0.2l-0.5-0.5c-0.1-0.2-0.2-0.3-0.2-0.6l2.1-9.3
	c0.1-0.2,0.2-0.4,0.4-0.6l0.7-0.5c0.1-0.1,0.1-0.2,0-0.2h-3.4c-0.1,0-0.1,0.1-0.1,0.2l0.5,0.5c0.1,0.1,0.2,0.3,0.1,0.6l-0.9,3.9
	h-5.5l0.9-3.9c0.1-0.2,0.2-0.4,0.4-0.6l0.7-0.5c0.1-0.1,0.1-0.2,0-0.2h-3.4c-0.1,0-0.1,0.1-0.1,0.2l0.5,0.5c0.1,0.1,0.2,0.3,0.1,0.6
	l-2.1,9.3c-0.1,0.2-0.2,0.4-0.4,0.6l-0.7,0.5c-0.1,0.1-0.1,0.2,0,0.2h3.4c0.1,0,0.1-0.1,0.1-0.2l-0.5-0.5c-0.1-0.2-0.2-0.3-0.1-0.6
	l1-4.3H-78.8z M-128.7,257.5l0.1-0.1L-128.7,257.5 M-128.9,257.2v-0.1V257.2 M-128,257.1v0.4h0.1C-128,257.3-127.9,257.2-128,257.1
	 M-130.1,256.6c0.1,0.1-0.1,0.2,0,0.2V256.6 M-128.7,256.4l0.1,0.1v-0.1H-128.7 M-127.2,256.4v0.1h0.1l0.1-0.1H-127.2 M-128.1,256.2
	l0.1,0.1L-128.1,256.2 M-128.3,256.2c-0.1,0.1,0,0.1,0,0.1V256.2 M-127.4,256.2v-0.1V256.2 M-128,256l0.1,0.1
	C-127.8,256.1-127.8,256-128,256C-127.8,256.1-127.9,256-128,256C-127.9,256.1-127.9,256-128,256 M-128.5,256
	C-128.4,256-128.4,256-128.5,256 M-127.6,255.9l-0.1,0.1h0.1V255.9 M-125.8,255.8v0.1V255.8c0,0.1-0.1,0.2-0.1,0.2h0.1
	c0,0,0-0.1,0,0V255.8 M-128.4,255.9l0.1-0.1L-128.4,255.9z M-128.3,255.6c0.1,0,0,0.1,0,0.1V255.6L-128.3,255.6 M-129.5,255.7
	L-129.5,255.7l-0.1-0.1c0,0.1-0.2,0.4-0.3,0.3C-129.9,256.2-129.5,255.7-129.5,255.7l0.1-0.1L-129.5,255.7 M-127.1,255.5l-0.1,0.1
	C-127.2,255.8-127.1,255.7-127.1,255.5L-127.1,255.5 M-126.6,255.5L-126.6,255.5l0.1-0.1L-126.6,255.5l0.1-0.1L-126.6,255.5
	 M-119.8,255.5L-119.8,255.5v0.2V255.5L-119.8,255.5c0,0.2,0,0.3,0.1,0.2h-0.1V255.5l0.1,0.2l0.1-0.1v0.1c0-0.1,0.1-0.3-0.1-0.3
	c0.1,0,0,0.1,0,0c0,0.1-0.1,0,0,0L-119.8,255.5 M-130.4,255.3C-130.5,255.2-130.4,255.4-130.4,255.3 M-126.2,255.2
	C-126.1,255.3-126.2,255.2-126.2,255.2v-0.1V255.2 M-125.9,255L-125.9,255L-125.9,255L-125.9,255 M-122.5,255l0.1,0.1
	c0.1,0,0.1,0,0.1-0.1h0.1v-0.1L-122.5,255 M-118,255L-118,255l0.1,0.1L-118,255 M-124.2,255.2l0.2-0.1h-0.2V255V255.2 M-122.5,255.1
	v-0.2C-122.5,254.9-122.6,255.1-122.5,255.1 M-126.1,255.1v0.2C-126.1,255.2-126,255.2-126.1,255.1v0.1v-0.3V255.1v-0.2V255.1v-0.2
	V255.1 M-129.2,254.9v0.2V254.9 M-122.4,254.8v0.1V254.8l0.1,0.1L-122.4,254.8 M-120.1,254.8c0,0.1,0.1,0.3,0.1,0.3h0.2
	L-120.1,254.8L-120.1,254.8L-120.1,254.8 M-119.9,254.7C-120.1,254.8-119.9,254.7-119.9,254.7 M-129,254.7L-129,254.7
	c-0.1,0.1-0.2,0.3-0.2,0.3l0.1-0.1C-129.1,254.8-129,254.8-129,254.7h0.3H-129 M-119.8,254.7l0.1,0.2v0.1L-119.8,254.7l0.1,0.1
	C-119.7,254.6-119.7,254.7-119.8,254.7l0.1-0.1L-119.8,254.7 M-120.2,254.6v0.3l0.1,0.1L-120.2,254.6 M-120,254.5L-120,254.5
	L-120,254.5C-119.9,254.5-119.9,254.6-120,254.5 M-123.7,254.5C-123.8,254.6-123.7,254.6-123.7,254.5L-123.7,254.5L-123.7,254.5
	L-123.7,254.5 M-122.5,254.8L-122.5,254.8l-0.1-0.2C-122.6,254.7-122.6,254.8-122.5,254.8 M-120.3,254.6l-0.1-0.2L-120.3,254.6
	 M-121.5,254.5L-121.5,254.5L-121.5,254.5 M-125.7,254.4l0.2,0.1v-0.2l-0.2-0.1V254.4 M-124.2,254.2v0.2V254.2 M-129.8,254.2v0.2
	v-0.1v0.1V254.2 M-125.4,254.2L-125.4,254.2C-125.3,254.4-125.4,254.3-125.4,254.2 M-130.4,254.2
	C-130.4,254.1-130.3,254.2-130.4,254.2 M-129.7,254.1C-129.7,254.1-129.9,254.2-129.7,254.1 M-131,254.1c0,0.1-0.2,0.1-0.1,0.1
	l0.1,0.1V254.1l0.1,0.1L-131,254.1l0.1,0.1L-131,254.1 M-120.5,254l0.1,0.1v0.1c0.1,0-0.1,0,0,0.1h0.1c0,0.2,0,0.1,0.1,0.1l0.1,0.1
	v-0.2v0.1l-0.3-0.2L-120.5,254L-120.5,254 M-129.5,254.1V254C-129.7,254-129.6,254.1-129.5,254.1 M-124.1,254.1
	C-124.2,254.1-124.1,254.1-124.1,254.1C-124.2,254.1-124.5,254.2-124.1,254.1l0.1-0.1v-0.2L-124.1,254.1 M-128.4,254h0.1H-128.4
	 M-121,253.7v0.1V253.7L-121,253.7 M-128.8,253.8l-0.2,0.2h0.1l0.1,0.2h0.1l0.1-0.1C-128.7,254.2-128.7,253.9-128.8,253.8l0.1,0.1
	C-128.6,253.8-128.7,253.7-128.8,253.8 M-128.2,253.8v0.1V253.8l0.2-0.2h-0.3L-128.2,253.8 M-122,253.8l0.1,0.1v0.3v-0.1h0.1
	c0.1-0.1,0.2,0,0.2,0l0.1-0.1c-0.1,0,0,0,0,0L-122,253.8c0-0.2,0-0.3-0.1-0.3C-122.1,253.6-122.1,253.7-122,253.8 M-127,253.4
	c0,0.1,0,0.2-0.1,0.2c0,0.1,0.1,0.3,0.1,0.3h-0.1c0,0.1,0.1,0.1,0,0.2c-0.1,0.1,0.1,0.1,0.2,0.2c0,0.1,0.4,0.3,0.5,0.1v-0.2
	c0,0.1,0.1-0.1,0.1-0.1c0,0.1,0.1-0.1,0.1-0.1v-0.1l-0.1,0.1c-0.1-0.1,0.1-0.2,0-0.2v-0.1c0,0.1,0.2-0.1,0.2-0.1l-0.1-0.1l0.1,0.1
	h-0.2l-0.3,0.4c0-0.2-0.1-0.3-0.2-0.4h0.1l-0.1-0.1h0.1l-0.1-0.1H-127 M-126.7,253.3v0.2h0.1v0.1c0-0.1,0.1-0.1,0.1-0.2
	L-126.7,253.3 M-121.8,253.2l0.1,0.1l0.1-0.1c-0.1,0.2,0.1,0.2,0.2,0.2v0.2v-0.1v0.1l0.1-0.1c0,0.1,0.1,0.1,0.1-0.1h-0.1l0.1-0.2
	h-0.1l-0.1-0.1c-0.1,0.1-0.1,0.1-0.1,0l-0.1,0.1c-0.1,0-0.2,0-0.2-0.1V253.2 M-122.7,253.1l0.1,0.1
	C-122.6,253-122.7,253.1-122.7,253.1 M-118.4,253C-118.4,253-118.5,253.1-118.4,253 M-121.9,253.1c0,0-0.2,0.1-0.1,0.1L-121.9,253.1
	v0.2C-121.9,253.6-121.6,253.3-121.9,253.1 M-123.2,253c0,0.2,0.1,0.1,0.1,0.2l0.3-0.2c-0.1,0-0.2-0.1-0.3-0.1L-123.2,253
	 M-118.3,253.1L-118.3,253.1C-118.3,253-118.4,253.1-118.3,253.1 M-130.8,252.7C-130.7,252.7-130.7,252.7-130.8,252.7 M-130.6,252.7
	L-130.6,252.7L-130.6,252.7 M-127.1,252.6l-0.1,0.1L-127.1,252.6L-127.1,252.6 M-124.3,252.5L-124.3,252.5L-124.3,252.5
	 M-130.7,252.4l0.2,0.1l-0.1,0.1l0.1,0.1l0.1-0.1v-0.1l-0.2-0.2L-130.7,252.4 M-126.7,252.2h0.1H-126.7l0.2,0.1l-0.1-0.1H-126.7
	 M-127.4,252.2L-127.4,252.2L-127.4,252.2L-127.4,252.2 M-127,252.3C-127.1,252.3-127.1,252.4-127,252.3v0.2l0.1,0.1h0.1l0.1-0.1
	c0,0-0.1,0.2,0,0v0.1h0.2c0-0.2-0.2-0.1-0.2-0.2c0.1-0.1-0.1-0.1-0.2-0.1H-127l0.2-0.1C-126.8,252.1-127.2,252.2-127,252.3
	 M-123.6,252.2v0.1V252.2z M-123.7,252.2c0-0.1,0.1-0.2,0-0.1V252.2V252h-0.1C-123.8,252.2-123.7,252.2-123.7,252.2 M-126.4,252.1
	L-126.4,252.1L-126.4,252.1C-126.4,252-126.5,252-126.4,252.1 M-123.2,252c0,0-0.1,0.2-0.1,0.3L-123.2,252L-123.2,252 M-125.5,252
	c0,0.1-0.2,0.1-0.2,0.2l0.1,0.1v0.1l-0.2,0.2l0.3,0.1l0.1-0.1l0.1,0.1h0.2l0.1,0.1c0-0.1,0-0.3-0.1-0.3v0.1v-0.4v0.1
	c0,0-0.1-0.1,0-0.1h-0.3C-125.3,252.2-125.4,252-125.5,252C-125.6,252.1-125.4,252-125.5,252 M-124,252
	C-124.1,252.1-124,252-124,252 M-125.4,252l0.1,0.1C-125.2,252-125.3,252-125.4,252 M-126,251.9v0.1V251.9v0.3h0.1c0-0.1,0-0.1,0,0
	l-0.1-0.1C-125.9,252.1-126,252-126,251.9 M-127.4,251.9c-0.2,0.1,0,0.2,0,0.2V251.9 M-124.3,251.9c0,0.1,0,0.3,0.1,0.1v0.1
	L-124.3,251.9 M-124.1,251.8c0,0,0,0.3,0.1,0.2c0.1,0.1,0.1,0.2,0.2,0.2l-0.1-0.1l0.1-0.1v-0.1c0,0-0.1,0.1,0,0h-0.1c0.1,0,0,0,0,0
	S-123.9,251.8-124.1,251.8 M-126.3,251.7h0.1H-126.3 M-123.7,251.6L-123.7,251.6L-123.7,251.6 M-127.1,251.6
	C-127.1,251.7-127.1,251.6-127.1,251.6 M-123.1,251.7c0,0.1,0.2,0.3,0.2,0.4v0.1V252v0.1v-0.5C-123,251.8-123,251.7-123.1,251.7
	l0.1-0.2L-123.1,251.7 M-130,251.6h0.1H-130 M-124.3,251.6l0.2,0.1l0.1-0.1v-0.1h-0.1l-0.1-0.1L-124.3,251.6 M-122.8,251.5h0.3
	c0-0.1-0.1-0.1-0.2-0.1L-122.8,251.5 M-122.5,251.4l0.1,0.1L-122.5,251.4 M-123.9,251.4L-123.9,251.4L-123.9,251.4 M-123.1,251.3
	l0.1,0.1L-123.1,251.3 M-124.1,251.4v-0.1C-124.2,251.4-124.2,251.4-124.1,251.4 M-123.2,251.4l0.1-0.1L-123.2,251.4 M-123.6,251.2
	L-123.6,251.2c-0.1,0.2-0.2,0.2-0.2,0.3c0,0,0.2,0,0,0.1l0.2-0.1V251.2 M-126.6,251.2c0-0.1-0.1,0-0.1,0.1L-126.6,251.2
	c0.1,0.1,0.1,0.2,0.1,0H-126.6 M-123.5,251.1C-123.5,251.1-123.6,251.3-123.5,251.1 M-123.9,251.1l0.1,0.1L-123.9,251.1
	L-123.9,251.1 M-122.6,251.1c0.1,0.1,0.1,0,0.1,0.1v-0.1H-122.6 M-122.7,250.8L-122.7,250.8L-122.7,250.8L-122.7,250.8
	 M-124.1,250.7C-124.2,250.7-124.2,250.7-124.1,250.7C-124.3,250.9-124.1,250.7-124.1,250.7 M-124,250.8
	C-124,250.8-124.1,250.8-124,250.8 M-121.2,250.7v0.2V250.7 M-128.1,250.6C-128.1,250.5-128,250.5-128.1,250.6L-128.1,250.6
	 M-123.5,250.5l0.2,0.1v-0.1H-123.5v-0.1V250.5 M-127.7,250.5C-127.7,250.6-127.7,250.6-127.7,250.5l0.1-0.2L-127.7,250.5
	 M-121,250.4v0.2h-0.1v-0.1c0,0,0.2,0.1,0.2,0v-0.1c0.1-0.1,0-0.2-0.1-0.2V250.4 M-122,251.6C-122,251.7-122,251.6-122,251.6
	 M-121.9,251.2l0.1,0.1C-121.9,251.4-121.9,251.3-121.9,251.2v0.1V251.2C-121.8,251.2-121.8,251.2-121.9,251.2 M-122.9,250.4
	l-0.1-0.1l0.3,0.3c0-0.2,0.3,0.2,0.3,0.2l0.1-0.2h0.1v0.1l-0.1,0.1v0.1v-0.1v0.1c0-0.1,0.1,0.1,0.1,0.1h-0.1c0,0.1,0.2,0.2,0.1,0.3
	h-0.1l-0.1,0.1c-0.1,0.3-0.1,0.1-0.2,0.1v-0.1h-0.1v0.4c0,0,0.2,0,0.1-0.1l0.1-0.1c0,0.1,0.1,0.1,0.1,0l0.1,0.2v0.1l0.3,0.1
	c0,0,0.4-0.4,0.2-0.5v-0.1h-0.1c0,0-0.1,0.1-0.1,0c0.1,0,0.1-0.2,0.1-0.2v-0.1h-0.1c0.2,0-0.1-0.3-0.2-0.2c0,0,0-0.4-0.2-0.3
	l-0.2-0.1l-0.1-0.2c-0.1,0,0.1,0.2,0,0.2C-122.7,250.4-122.8,250.4-122.9,250.4l0,0.1h0.1h-0.1v0.1l-0.1-0.2
	C-123,250.5-123,250.4-122.9,250.4h-0.2C-122.8,250.2-122.9,250.3-122.9,250.4 M-123.8,250.3L-123.8,250.3L-123.8,250.3
	 M-121.3,250.3L-121.3,250.3L-121.3,250.3 M-123.7,250.2v0.1C-123.6,250.2-123.7,250.2-123.7,250.2 M-121.6,250.2v0.2h0.1
	c0,0.1,0,0.2,0.1,0c0,0.1,0,0.1,0.1,0.1h-0.1c0.1,0,0.3-0.1,0.3-0.2c0-0.1-0.2,0-0.3,0v-0.1h-0.1c0-0.2-0.1-0.1-0.1-0.1V250.2
	l0.1-0.1L-121.6,250.2 M-128.5,250.2v-0.1V250.2 M-121.3,250L-121.3,250C-121.3,250.1-121.2,250-121.3,250 M-127.7,250L-127.7,250
	L-127.7,250 M-121.5,250C-121.5,250-121.4,250.1-121.5,250 M-126.6,250l0.1-0.1L-126.6,250 M-126.7,250.6
	C-126.6,250.7-126.7,250.6-126.7,250.6 M-126.5,250.2h-0.2c-0.1-0.2-0.1,0.2-0.1,0.2l-0.1,0.1h-0.1l0.1,0.1h-0.2v0.1h-0.1
	c0,0,0,0.3,0.1,0.1v0.1c-0.1-0.1-0.2,0.1-0.2,0.2v0.1l-0.2-0.1v0.1h-0.1v-0.1c-0.1,0-0.1,0.2-0.2,0.1v0.2h0.1v0.1h0.1v0.2l0.2,0.1
	h-0.1l0.2-0.3v-0.1c0,0.1,0.1,0,0.1-0.1l0.3-0.1c-0.1-0.1,0-0.1,0-0.3c0.2,0,0.1,0.1,0.1,0.1c0.1,0,0,0,0.1-0.1h0.1v-0.1h0.2
	c0.1-0.3-0.1-0.4,0.1-0.4c0-0.1,0-0.2,0.1-0.1v0.1c0.2,0,0-0.2,0-0.2h0.2l0.1-0.1c-0.1,0-0.1-0.1-0.1-0.2
	C-126.3,249.9-126.5,250.2-126.5,250.2 M-128,249.9c0,0,0.1,0.1,0,0.2V250v0.2c0.1,0.2,0.2,0,0.1-0.2
	C-127.9,250-127.9,249.8-128,249.9 M-126.4,249.8C-126.4,249.9-126.4,249.9-126.4,249.8L-126.4,249.8L-126.4,249.8 M-120.9,249.7
	l0.1,0.2v-0.1h0.1v-0.1H-120.9 M-128.2,249.6c-0.2,0.1,0.1,0.4,0.1,0.3l-0.1-0.1h0.1L-128.2,249.6 M-128.2,249.5
	C-128.2,249.6-128.1,249.5-128.2,249.5 M-126.5,249.3L-126.5,249.3L-126.5,249.3C-126.6,249.3-126.6,249.4-126.5,249.3l-0.1,0.2v0.1
	h-0.1c0,0.1-0.1,0.2-0.1,0.1c-0.1,0-0.3,0.2-0.2,0.3c0.2,0,0.2-0.1,0.3-0.3l-0.1,0.1l0.1-0.1l0.2-0.1l-0.1-0.1v-0.1l0.2-0.2
	C-126.4,249.3-126.5,249.3-126.5,249.3 M-126.9,249.3c0.1,0.1,0,0.1,0,0.2h0.2c0.2-0.1,0-0.2,0.1-0.3L-126.9,249.3 M-127.5,249.1
	L-127.5,249.1L-127.5,249.1L-127.5,249.1C-127.3,249.2-127.6,249.2-127.5,249.1L-127.5,249.1L-127.5,249.1 M-124.8,249.1l-0.2,0.2
	h0.1C-124.8,249.3-124.8,249.2-124.8,249.1 M-126.3,249c0,0.1,0.1,0.1,0.1-0.1L-126.3,249 M-122.6,248.9L-122.6,248.9L-122.6,248.9
	 M-121.3,248.8l0.1-0.1l-0.1-0.1V248.8 M-121.7,248.7l0.1,0.1L-121.7,248.7 M-124.9,248.7l0.1,0.1L-124.9,248.7 M-124.1,248.7v0.1
	l-0.1,0.1v0.1h0.1v-0.1C-123.9,248.8-124,248.7-124.1,248.7 M-121.9,248.8v-0.2V248.8 M-124.9,248.7
	C-125,248.6-125,248.7-124.9,248.7 M-120.1,248.7C-120.1,248.7-120,248.7-120.1,248.7h0.2l-0.1,0.2l0.1,0.1c-0.1,0-0.1-0.1-0.2-0.1
	v0.1c0.1,0,0.1,0.1,0.2,0.1l0.3-0.1c0-0.1,0-0.1-0.1,0v-0.2l-0.1-0.1l-0.2-0.1L-120.1,248.7 M-120.4,248.6c0.1,0.1,0,0.2,0.1,0.2
	L-120.4,248.6 M-121.5,248.6c0,0,0,0.1,0.1,0.1L-121.5,248.6 M-120.1,248.5C-120.2,248.6-120.1,248.7-120.1,248.5 M-120.9,248.7
	C-120.9,248.8-121,248.7-120.9,248.7l-0.1,0.2v0.1h0.2L-120.9,248.7c0.1,0.2,0.2,0.2,0.2,0.3l0.1-0.1c-0.1,0,0.1,0.1,0.2,0.1h0.2
	v0.1c0-0.2-0.1-0.1-0.1-0.1v-0.1l-0.1,0.1l-0.1-0.2h-0.1c0-0.1,0-0.1,0.1-0.1h-0.1c-0.1,0-0.2,0-0.2-0.1L-120.9,248.7 M-124.7,248.6
	L-124.7,248.6L-124.7,248.6 M-122.9,248.5L-122.9,248.5L-122.9,248.5 M-123.1,248.5L-123.1,248.5L-123.1,248.5 M-121.1,248.5v0.3
	l0.1-0.1c0,0.1,0.1-0.1,0.1-0.1L-121.1,248.5 M-125.5,248.3v0.2h-0.2v-0.1l-0.1,0.2h-0.1c0,0.1,0.2,0.3,0.3,0.2
	c0.1,0.2,0.5-0.1,0.3-0.1v-0.1h-0.1c0.1,0,0-0.1,0-0.1L-125.5,248.3 M-121.9,248.3v0.1l0.1,0.1c0,0,0.2,0,0-0.1L-121.9,248.3
	 M-123.4,248.5L-123.4,248.5L-123.4,248.5h-0.2v0.1h-0.1v0.1h0.2l0.1-0.3C-123.4,248.4-123.5,248.3-123.4,248.5 M-122,248.4
	C-121.8,248.4-122,248.4-122,248.4 M-124.7,248.3v0.1V248.3 M-126.9,248.4c0.1,0.1,0.1,0,0.1-0.1L-126.9,248.4 M-121.9,248.3
	C-122,248.3-121.9,248.3-121.9,248.3 M-119.2,248.2L-119.2,248.2L-119.2,248.2C-119.2,248.3-119.1,248.1-119.2,248.2 M-122,248
	c0.1,0.1,0.2,0.3,0.3,0.1h-0.1L-122,248 M-123.6,248l0.1,0.1v-0.2L-123.6,248 M-123.8,248l0.1-0.1L-123.8,248 M-122.5,248l0.2,0.1
	v0.1h-0.1c-0.3-0.6,0,0,0,0.1h-0.1l0.1,0.1v-0.1l0.1-0.1v0.2l0.1-0.1l0.2,0.1h-0.1c0.1-0.2-0.2-0.2-0.2-0.2c0-0.2,0.1-0.4-0.1-0.4
	v-0.1l-0.2-0.1C-122.5,247.8-122.5,247.9-122.5,248 M-122.7,247.7l0.1-0.1L-122.7,247.7 M-122.6,247.6
	C-122.6,247.7-122.5,247.7-122.6,247.6 M-122.7,247.6v0.1V247.6 M-125,247.5L-125,247.5L-125,247.5 M-122.7,247.5
	C-122.6,247.4-122.6,247.4-122.7,247.5v-0.1C-122.7,247.4-122.8,247.5-122.7,247.5 M-123.9,247.5v0.3l0.1-0.1v0.1l0.2-0.1l0.2-0.1
	c0-0.2-0.1-0.2-0.1-0.2h-0.1c-0.1,0,0,0,0-0.1C-123.8,247.2-123.9,247.4-123.9,247.5 M-119.6,247.2L-119.6,247.2L-119.6,247.2
	L-119.6,247.2 M-126.4,247.1C-126.5,247.2-126.4,247.3-126.4,247.1 M-126.4,247v0.2C-126.3,247.2-126.2,247-126.4,247 M-124.8,247.1
	V247V247.1 M-123.4,247.1v0.1V247.1v0.2c0,0.1,0.1,0.1,0.2,0.1h0.1v-0.3l-0.1-0.1C-123.3,247-123.4,247.1-123.4,247.1 M-123.5,246.9
	C-123.5,246.9-123.5,247.1-123.5,246.9 M-126.7,247.1v0.1c0.1-0.1,0.1,0,0.1,0.1L-126.7,247.1c-0.1-0.1,0-0.1,0-0.2h-0.1
	C-126.7,246.9-126.7,247-126.7,247.1 M-123.3,246.9v-0.1V246.9 M-126.2,246.8l0.1,0.1h0.1C-126.1,246.7-126.1,246.8-126.2,246.8
	 M-128.9,246.8C-128.9,246.8-128.9,247-128.9,246.8l0.1-0.1L-128.9,246.8 M-128.8,246.9l0.1-0.2L-128.8,246.9 M-124.3,246.7
	L-124.3,246.7L-124.3,246.7l0.1,0.2l0.1-0.1c0,0,0.1,0.3,0.2,0.1c-0.1-0.1-0.1-0.2-0.2-0.1v-0.1H-124.3 M-126.5,246.5v0.3
	c0.1,0.1,0,0.2,0.1,0v0.1C-126.2,246.9-126.5,246.6-126.5,246.5l0.1,0.2l0.1-0.1l-0.1,0.1c0-0.1,0.1-0.1,0.1-0.1
	C-126.5,246.5-126.5,246.7-126.5,246.5 M-121.9,246.5L-121.9,246.5v-0.2V246.5 M-120.7,246.4v0.1V246.4 M-119.7,246.4v-0.2V246.4
	 M-126.4,246.3c0.1,0-0.1,0.2,0,0.2V246.3l0.1,0.2C-126.3,246.3-126.4,246.3-126.4,246.3 M-129.1,246l0.1-0.1
	C-129.1,245.9-129.1,245.9-129.1,246 M-120.8,246L-120.8,246L-120.8,246L-120.8,246L-120.8,246L-120.8,246l0.1,0.2h-0.2
	c0.1,0.1,0.2,0.2,0.3,0.2l0.1,0.1h0.2l0.1-0.1v-0.2h-0.5L-120.8,246c-0.1,0.1,0.1,0,0.1-0.1C-120.6,245.8-120.8,245.9-120.8,246
	 M-125.5,246L-125.5,246L-125.5,246 M-125.7,245.8l-0.1,0.1h-0.2l0.1-0.1l-0.1,0.2h-0.1c0.1,0,0-0.1,0.1-0.1c0-0.1-0.1-0.1-0.1-0.1
	v0.3l-0.2,0.1v0.1h-0.1c0,0.2,0.1,0.2,0.2,0.2h0.1v-0.1h0.2v0.2c0.1,0.2,0,0.2-0.1,0.2v0.1l0.1,0.1l-0.2,0.2h0.2
	c0.1,0.1,0.1,0.1,0.3,0c0.1,0,0.4-0.3,0.4-0.1l0.1-0.1l0.2,0.1v-0.3c0.2,0.3,0.2-0.4,0.2-0.4c0-0.1-0.2-0.1-0.2-0.1h-0.2
	c0.1-0.1,0-0.1,0-0.2c0,0-0.3,0.1-0.2,0h0.1l-0.1-0.1c-0.1-0.1-0.1-0.1-0.2-0.3h0.1v-0.1L-125.7,245.8 M-125,245.6v0.2h0.1
	L-125,245.6z M-121.1,246.3C-121.4,246.2-121.1,246.2-121.1,246.3L-121.1,246.3 M-121.2,245.7h-0.3v0.2h-0.1v-0.1l-0.1-0.2h-0.1
	c0.1,0.1,0,0.2,0,0.3h0.1c0,0.1,0.1,0,0.2,0h-0.1c0,0.1,0.1,0,0.1,0.1h-0.1l0.1,0.1h-0.1l-0.1-0.1v-0.1l-0.1,0.1l0.2,0.2v-0.1v0.1
	h0.2c0,0.2,0.1,0,0.2,0c0,0.1,0.1,0.2,0,0.3h0.3c0.1,0.2,0.3,0,0.3,0v0.1v-0.1c-0.1,0.1-0.2-0.1-0.3-0.2l-0.1-0.1V246l-0.1,0.1V246
	l0.1,0.1v-0.2v0.1h-0.1v-0.2L-121.2,245.7l0.1,0.1c0-0.1,0.1-0.2,0-0.3L-121.2,245.7 M-126,245.7v-0.1V245.7 M-126,245.6l0.1,0.2
	L-126,245.6h0.2v0.1l0.1-0.1H-126 M-122,245.5c-0.1-0.1-0.1,0-0.1-0.1h-0.1l-0.2,0.2v0.1l0.1,0.1v-0.1v0.1l0.1-0.1l-0.1,0.1
	c0.1,0,0.1-0.1,0.1-0.2v-0.1C-121.9,245.7-121.9,245.6-122,245.5v-0.2C-122,245.4-121.9,245.5-122,245.5 M-125.5,245.4l0.1,0.1h0.1
	v-0.1l0.1,0.1v0.1h-0.1v0.1c0.1-0.2,0.3-0.1,0.3,0.1v-0.2c0,0.1,0,0,0,0v-0.1h-0.2v-0.1c0,0.1,0.1,0,0.1,0H-125.5 M-126.1,245.4
	L-126.1,245.4L-126.1,245.4 M-119.4,245.4c-0.2,0.1,0.2,0.2,0.3,0.2L-119.4,245.4h0.2H-119.4c0.1,0.1-0.1-0.2,0-0.2h-0.2
	C-119.6,245.4-119.5,245.4-119.4,245.4 M-126.7,245.2C-126.7,245.4-126.6,245.2-126.7,245.2 M-126.5,245.3L-126.5,245.3
	L-126.5,245.3c-0.2,0-0.3,0.1-0.3,0h-0.1v0.2l-0.1,0.1c-0.1,0.3,0.2,0.1,0.4,0.2v-0.1l0.1-0.2V245.3L-126.5,245.3L-126.5,245.3
	L-126.5,245.3c0.1,0,0.2,0.1,0.2-0.1h-0.1c0,0-0.1,0-0.1-0.1V245.3 M-122.2,245.2h-0.1H-122.2 M-121.7,245.1c0,0.3,0.3,0.1,0.3,0.1
	h-0.1L-121.7,245.1 M-120.9,245.1l-0.2,0.2v0.2h-0.1c0.1,0,0,0,0,0l0.2,0.4c0-0.1,0-0.3,0.1-0.2v0.1c0.1,0,0.2-0.1,0.2-0.2v0.1
	l0.1-0.1v-0.5h-0.1c0,0.1,0.1,0.2,0.1,0.3c0,0-0.1-0.3-0.2-0.2L-120.9,245.1v0.1V245.1v0.1C-120.9,245.1-120.8,245.1-120.9,245.1
	C-120.8,245-120.9,245.1-120.9,245.1 M-121.1,245c0,0,0.1,0.1,0.1-0.1L-121.1,245 M-124.3,244.8c-0.1,0.2-0.1,0.2,0,0.2
	c0,0-0.1,0.1,0,0.2C-124.3,245-124.2,244.9-124.3,244.8 M-125.1,244.8l-0.1,0.1L-125.1,244.8c-0.2,0-0.1,0.2-0.1,0.1l-0.1,0.1h0.4
	v0.1v-0.2C-124.8,244.9-125,244.9-125.1,244.8C-124.9,244.8-125.1,244.8-125.1,244.8 M-118.8,244.8
	C-118.8,245-118.7,244.8-118.8,244.8L-118.8,244.8L-118.8,244.8 M-125.2,244.5L-125.2,244.5L-125.2,244.5 M-124.8,244.4l0.1,0.1
	h-0.1c-0.1,0.1,0.1,0.1,0.1,0v0.1c0.1,0,0.1,0,0.1-0.1h-0.1L-124.8,244.4L-124.8,244.4L-124.8,244.4L-124.8,244.4L-124.8,244.4
	l0.1-0.1h-0.1V244.4 M-123.2,244.4c0.1-0.1-0.2-0.1-0.2,0l-0.1-0.1v0.1l-0.1-0.1v0.1c0,0,0.2,0.3,0.3,0.2c0-0.2,0.3-0.1,0.3-0.1
	l0.1,0.1l0.1,0.1v0.1l-0.2-0.1l-0.1,0.1l0.2,0.2c0,0.1,0.1,0.1,0,0.1v0.1h-0.1c0,0.1,0.1,0.1,0.1-0.1c0.1,0,0.1-0.3,0.2-0.4v0.1
	c0,0.1,0,0.1-0.1,0.2l0.1-0.1h0.1v-0.1h-0.1c0.1,0-0.3-0.4-0.2-0.5l-0.1,0.1v-0.2L-123.2,244.4 M-125,244.3L-125,244.3l0.1,0.2h0.1
	h-0.1C-124.8,244.4-125,244.2-125,244.3 M-123.8,244.5h-0.2v-0.2c0,0,0-0.1-0.1,0l-0.2,0.2v0.1v-0.1c0,0.1,0.1,0.2,0.2,0
	c0,0.1,0,0.2,0.1,0.1c-0.1,0.1,0.1,0.2,0.1,0.2v0.1v-0.1l0.2,0.1C-123.7,244.8-123.8,244.5-123.8,244.5h0.1H-123.8
	c0.1,0,0-0.1,0.1-0.2l-0.1-0.1V244.5 M-125.6,244.1L-125.6,244.1c-0.1,0.1,0,0.1,0.1,0.2v0.1c0.1-0.1,0.1-0.1,0.1-0.2
	C-125.4,244.1-125.5,244.1-125.6,244.1L-125.6,244.1 M-124.9,243.9v0.1V243.9 M-125.7,243.7L-125.7,243.7L-125.7,243.7
	 M-123.6,243.7l-0.1,0.1h0.1C-123.7,243.7-123.5,243.7-123.6,243.7L-123.6,243.7 M-123.8,243.6L-123.8,243.6l-0.2,0.1v0.2
	c0.1,0,0.2,0.2,0.2,0L-123.8,243.6l0.1,0.2L-123.8,243.6L-123.8,243.6 M-122.5,242.9h0.2C-122.3,242.8-122.4,242.9-122.5,242.9
	L-122.5,242.9L-122.5,242.9L-122.5,242.9 M-124.8,242.9h0.1c0.1,0,0.1-0.2,0.1-0.2h-0.1C-124.8,242.7-124.8,242.8-124.8,242.9
	 M-122.7,242.8v0.2V242.8L-122.7,242.8L-122.7,242.8c0,0,0.1-0.1,0-0.1V242.8 M-124.9,242.6C-124.8,242.6-124.8,242.7-124.9,242.6
	 M-123.6,242.5C-123.7,242.6-123.6,242.5-123.6,242.5 M-124.8,242.6L-124.8,242.6v-0.1C-124.8,242.4-124.9,242.6-124.8,242.6
	 M-124,242.4v0.1V242.4v0.1c0-0.1-0.1,0.1-0.2,0.2h0.1h-0.1h0.1v-0.1v0.1h0.1h-0.1h0.1v-0.1l0.2-0.1v-0.1H-124 M-123.5,242.3
	C-123.5,242.2-123.6,242.3-123.5,242.3L-123.5,242.3c0.1,0.1,0,0.3,0.1,0.2c0,0.1,0.1,0.2,0.1,0.1c0.1,0,0.1,0,0.2-0.1v0.1h0.1
	l0.1-0.1h-0.2c0,0,0-0.1-0.1-0.2l0.1,0.1h-0.2v-0.1v0.1L-123.5,242.3C-123.5,242.4-123.5,242.4-123.5,242.3 M-121.9,242.2
	C-121.9,242.3-121.9,242.2-121.9,242.2 M-123.6,242.2v-0.1V242.2 M-125.7,242l-0.1,0.2L-125.7,242v0.2V242 M-121.8,242
	C-121.5,242.1-121.7,242-121.8,242v-0.1V242 M-124.4,241.9l-0.1,0.1L-124.4,241.9L-124.4,241.9l-0.2,0.2l0.1-0.1L-124.4,241.9v0.1
	l0.2-0.1C-124.2,241.9-124.4,242-124.4,241.9 M-124.3,241.8L-124.3,241.8l0.1,0.2l0.1-0.1c-0.1,0,0,0-0.1,0.1
	C-124.2,241.8-124.1,241.8-124.3,241.8 M-122.2,241.8L-122.2,241.8L-122.2,241.8 M-124.1,241.7v0.1V241.7 M-123.8,241.7
	c0,0.1,0.1,0,0.2,0H-123.8 M-124.7,240.2c-0.3,0.2-0.1,0.3-0.1,0.2v-0.1L-124.7,240.2v0.1V240.2 M-122,240.2v0.2
	c0-0.1,0.1-0.2,0.1-0.3L-122,240.2 M-125.4,240L-125.4,240c-0.1,0.2,0,0.2,0,0.2V240 M-125,240v-0.1V240 M-125.7,239.9L-125.7,239.9
	L-125.7,239.9 M-124.8,239.7v0.2c0,0.1,0.1,0,0.1,0L-124.8,239.7h0.1c-0.1,0.1,0.1,0,0.1,0C-124.7,239.7-124.7,239.6-124.8,239.7
	 M-126.2,239.9L-126.2,239.9L-126.2,239.9 M-125.5,239.7c0.1,0.1,0,0.1,0,0.1v0.1h0.1l-0.1,0.1c0.3-0.1,0-0.1,0.1-0.2l-0.1,0.1
	V239.7 M-126.8,239.6C-126.7,239.6-126.8,239.6-126.8,239.6 M-123.6,239.5c-0.1,0.1,0,0.1-0.1,0.1c0,0,0.1,0.2,0.1,0.1l-0.1-0.1
	L-123.6,239.5 M-124.8,239.4v0.1V239.4v0.2C-124.9,239.5-124.8,239.4-124.8,239.4l-0.1,0.2l0.1-0.1V239.4 M-126.6,239.4
	L-126.6,239.4l-0.1,0.2c0,0-0.1,0.1,0,0.1v0.1v-0.1l0.1,0.2c0.1-0.2,0,0.2,0.1,0.2l0.1-0.1v0.1V240h-0.1l0.1-0.1v-0.1v0.1l-0.1-0.1
	c-0.1-0.1,0.1-0.1,0.1-0.2L-126.6,239.4 M-125.7,239.3C-125.6,239.3-125.7,239.4-125.7,239.3 M-126.8,239
	C-127,239-126.7,239.1-126.8,239 M-123.8,239C-123.8,239.1-123.7,239.2-123.8,239C-123.8,239-123.8,239.1-123.8,239 M-125.7,238.7
	l0.1,0.2l0.1-0.1c0.1,0.1,0.2,0,0.2,0.2h-0.1v0.1h-0.1c0.1,0.1,0.1,0.2,0,0.2v0.1l0.3-0.1l-0.2-0.1c0.1,0,0.1-0.2,0-0.3l-0.1-0.1
	v-0.1v0.1v-0.1H-125.7 M-125.5,238.6C-125.5,238.5-125.7,238.6-125.5,238.6 M-125.7,238.4v0.1V238.4 M-125.3,238.2
	C-125.3,238.4-125.2,238.2-125.3,238.2 M-120.3,256.6L-120.3,256.6L-120.3,256.6 M-118.2,253.6
	C-118.2,253.5-118.2,253.5-118.2,253.6 M-124.8,236.3v-3.5c0-0.4-0.3-0.7-0.7-0.7h-8.2c-0.4,0-0.7,0.3-0.7,0.7v18.4
	c0,0.5-0.4,0.6-0.6,0.2l-7.2-17.4l-0.3-0.7c-0.5-1.1-0.5-1.2-1.9-1.2h-8.9c-0.4,0-0.7,0.3-0.7,0.7v36.4c0,0.4,0.3,0.7,0.7,0.7h7.8
	c0.4,0,0.7-0.3,0.7-0.7v-18.4c0-0.5,0.4-0.6,0.6-0.2l7.2,17.4l0.3,0.7c0.2,0.7,0.9,1.2,1.6,1.2h5.5c2.3,0,4.2-1.9,4.2-4.2v-9.5
	c-0.1,0-0.2-0.1-0.3-0.1l-0.1-0.1l0.1,0.2h-0.2v-0.1v0.1l0.1-0.1h-0.2c0,0.2,0,0.3,0.1,0.2h0.1l0.1,0.1h-0.1l0.1,0.1
	c0,0-0.2,0-0.2-0.1v0.2v-0.1l-0.1,0.1l-0.1,0.1c-0.1,0.2,0,0.2,0,0.2h-0.3c-0.2,0-0.3,0.1-0.5,0.1l0.1-0.1l-0.1,0.1l-0.2-0.1h0.1
	c-0.1-0.1,0-0.3-0.2-0.3v0.2l-0.1-0.2l-0.1,0.1l-0.2,0.5v-0.1l0.1,0.1h-0.1l0.1,0.1l-0.1,0.4v-0.1c-0.2,0-0.2,0-0.2,0.2h-0.1v-0.1
	l-0.1,0.2h-0.1c0-0.1,0.1-0.3,0.1-0.4h-0.1l-0.2,0.2v-0.1l-0.1,0.3l-0.2,0.1v-0.1h-0.1c0,0.3,0.2,0.2,0,0.2l-0.1,0.1
	c-0.1,0.1-0.1,0.3-0.2,0.1c-0.1-0.2,0-0.3,0-0.3c0.1,0,0.1-0.3,0.2-0.4l-0.1,0.1v0.1v-0.1h-0.1c0,0-0.1-0.2-0.2-0.2
	c0-0.2-0.2-0.2-0.2-0.3l0.1-0.1l-0.1-0.2c0,0,0.1-0.1,0.2,0.1v-0.1c0.1-0.1,0.1-0.5,0.3-0.4c-0.2-0.2,0-0.4,0.1-0.5
	c0-0.1,0-0.5,0.2-0.3v-0.1h0.1v-0.1h0.1l-0.1-0.1l0.1-0.1h0.1h-0.3v-0.1v0.1v-0.2l0.3,0.1c0.1-0.1,0-0.2,0-0.2c0-0.1,0-0.2,0.1-0.3
	v0.1v-0.2v0.1l-0.1,0.1l-0.2,0.2v-0.1l-0.1,0.2h-0.1l-0.3,0.3v-0.1c-0.1,0.1-0.2,0.5-0.2,0.3l0.1,0.1c-0.1,0-0.2,0.1-0.1,0.2
	c-0.1-0.1,0,0.3-0.2,0.3c-0.1,0-0.1,0.2-0.2,0.3l-0.1-0.3h-0.1v0.1h-0.1c0,0.2-0.1,0.1-0.1,0.1h0.2v0.1l0.1-0.1v0.1h-0.1v0.1v-0.1
	v0.1h-0.2v-0.2h-0.1c0.1,0.1-0.1,0-0.1-0.1l-0.1-0.1l0.1-0.1h0.1v-0.2l0.1-0.2h0.1l0.1-0.1l-0.2,0.5l0.1-0.1l-0.1-0.3l-0.2,0.2
	c-0.2,0.2-0.4,0.3-0.3,0h0.1c0-0.1-0.2-0.4-0.1-0.4c-0.4-0.3,0-0.3,0.1-0.3c0,0,0.1-0.3,0.2-0.1c0.1-0.2,0.3-0.1,0.4,0h-0.1l0.1,0.2
	v-0.1l0.2-0.1h-0.1c0-0.1,0.1-0.1,0.1,0h0.1h-0.1c0,0,0.4-0.2,0.4-0.3l-0.1,0.1c0-0.1,0.1-0.1,0.1-0.1v-0.1h0.1v0.1
	c0.2-0.2,0.4,0,0.4-0.3h0.1v0.2l0.1-0.2c0.1,0.1,0.2-0.1,0.2-0.2c-0.2,0.1-0.5-0.1-0.6-0.1v-0.1h-0.2c0.1,0.1,0,0.1,0,0.2l0.1,0.1
	h-0.1l-0.2,0.1v-0.1h-0.1c0-0.1,0,0,0,0v-0.1c0,0-0.1,0,0,0.1h-0.1l0.2,0.1c0.1,0.1,0,0.3-0.1,0.1v-0.1l-0.1,0.1l0.1,0.2h-0.1
	l0.1-0.1l-0.1,0.1v0.2h-0.2c-0.1,0,0-0.3,0.1-0.3c0,0-0.1-0.3-0.1-0.1h0.1h-0.1v0.2v-0.1c0,0-0.2,0.1-0.1,0.1h-0.1v-0.2v0.1h-0.2
	c0,0.1-0.1,0-0.1,0.1v0.1l0.1,0.1c-0.1,0.1-0.1,0.2-0.2,0.3h-0.2l0.1-0.1h-0.4v-0.1v0.2v-0.1h0.1c0,0.1-0.2,0.2-0.2,0.2
	c0.1,0,0.1,0.1,0,0.2h-0.2v-0.3l0.1,0.1l-0.1-0.2h-0.1c0,0,0-0.2-0.1-0.1c0-0.1,0.1-0.1,0.1-0.1h0.1l-0.1-0.1h0.1
	c-0.1,0.1,0.1,0,0.1,0h-0.1c0.1-0.1,0-0.1,0-0.2c0,0.1,0.1,0.1,0.2,0.1v0.1v-0.1c0.1,0,0.2,0,0.2-0.1h0.1l-0.1-0.1l0.1-0.1h0.1h-0.1
	v-0.2v0.1c0,0.1-0.1,0.1-0.1,0.1h-0.1l0.1-0.1l-0.1,0.1h0.1v0.1c-0.1-0.1-0.2,0-0.2,0.1h-0.1c0-0.1-0.2-0.2,0-0.2
	c0-0.1-0.3-0.3-0.2-0.4c0-0.1-0.1-0.4-0.2-0.6h0.1c0-0.1,0.4-0.6,0.4-0.8h0.1c0,0,0-0.4,0.2-0.2h-0.1h0.1v-0.3l-0.1,0.1
	c0-0.1-0.2-0.2-0.2-0.4c0.2,0,0.3,0,0.4-0.1c0-0.2-0.1-0.1-0.1-0.2h0.1v-0.1c0.2,0.1,0.1,0,0.3,0.2c0.1,0.1,0.1,0,0.1-0.1h0.1v-0.4
	c0.2-0.1,0.2-0.3,0.2-0.5c-0.1-0.2,0.1-0.2,0.1-0.3c0,0,0.2,0.1,0.1-0.1v-0.1c-0.2,0.2,0.1-0.1,0-0.2h0.1c0,0,0.1,0.2,0.2,0.1
	c-0.1-0.1,0-0.1,0-0.2h0.1c-0.1,0.1,0.3,0.3,0.4,0.3v0.1h-0.2l0.1,0.1c0-0.1,0-0.1,0.1-0.1v-0.1h-0.1V250l0.1,0.1h0.1V250h0.1v0.1
	c0,0,0.1,0,0.1-0.1h-0.1c0.1,0,0.2,0.1,0.1-0.1h0.1c-0.1-0.1,0.1-0.1,0.2-0.1c0-0.1-0.2-0.2-0.2-0.1l0.1-0.1c0-0.1-0.1,0.1-0.1,0.1
	v-0.1h-0.1v0.2v-0.1v0.1h-0.2l-0.1,0.2c0,0.1-0.1-0.2-0.1-0.4c-0.1-0.2-0.1-0.5,0-0.3c0-0.1,0-0.2-0.1-0.2s-0.1,0-0.1-0.2h0.3h-0.1
	l0.3-0.3h0.1c0-0.2,0.3-0.1,0.3,0c0.1-0.1,0.5-0.1,0.6-0.1c0-0.1,0.1-0.3,0.1-0.2h0.1V248l0.3-0.2h-0.1h0.3l0.1-0.1h0.1v-0.1
	c0-0.1-0.2-0.1-0.3-0.1h0.1c0-0.2-0.3-0.3-0.2-0.2v-0.1v0.2c-0.1-0.1,0,0-0.1,0.1c-0.1,0-0.2-0.3-0.2-0.4c0.1,0,0.2-0.2,0.1-0.2
	v-0.1c0,0,0.3-0.4,0.4-0.6l0.1-0.1l0.1-0.1c-0.1-0.1,0,0-0.1-0.2h-0.1l0.1-0.1h-0.1c-0.1,0-0.2-0.1-0.3,0.1l0.1,0.1h-0.2v-0.1
	l-0.1,0.1v0.2c0-0.1-0.2,0-0.2,0.1s-0.3,0.1-0.3,0h0.2c-0.1,0,0.1-0.3,0-0.3v-0.1l-0.2,0.1c0.2,0,0,0.2-0.1,0.3h-0.2v0.2h-0.2
	c0,0,0-0.2-0.1-0.1v0.1c0-0.2-0.4,0.2-0.2,0.2c0.1,0.1-0.2,0.1-0.2,0.1v0.1l0.1-0.1v0.1v-0.1v0.1h-0.1l-0.1,0.1v0.2h-0.2
	c0.1,0,0.1-0.2,0.1-0.2h-0.1c0,0.3-0.2,0.2-0.2,0.1l-0.1,0.1h0.1l-0.1-0.1v0.2c0-0.1,0-0.2,0.1-0.2l-0.3,0.1l0.1,0.1h-0.2l-0.2-0.2
	l-0.1,0.1c-0.1-0.1,0.1-0.5,0.1-0.7v0.1c0-0.2,0-0.4,0.1-0.4l0.1-0.2c0.2,0,0.2,0.1,0.3,0.2c-0.1-0.1,0,0,0,0h0.2c0,0,0-0.1-0.1-0.1
	h-0.2l-0.1-0.1l0.1-0.1v-0.5c-0.1,0,0,0.1,0,0.1c-0.2-0.3-0.1-0.3,0-0.5h0.3v-0.4l0.1-0.1c0.1,0,0.1,0.1,0.1,0.2l0.2-0.1
	c0.1-0.1,0.2-0.1,0.2,0.1l0.1-0.2v0.1c0,0,0.1-0.2,0-0.2v0.1c0-0.2-0.2-0.3-0.1-0.5l0.2-0.3c0.1-0.1,0.2-0.1,0.4-0.3h-0.1h0.3
	l0.1-0.1c0,0.1,0.1,0.2,0.1,0.2v-0.1c0.1,0.1,0.1,0,0.1,0c0-0.1,0.4-0.2,0.4-0.2v-0.4v0.1l0.1-0.1l0.2-0.1c0-0.1,0.2-0.1,0.2-0.3
	l0.1,0.1l-0.1-0.2h0.1v0.1h0.1c0,0,0-0.1,0,0v0.1l0.1,0.1v-0.1c0-0.1-0.1-0.2,0-0.3c0,0-0.5,0.2-0.6,0.2l-0.1-0.1
	c0,0-0.5,0.3-0.6,0.1h0.1l-0.3-0.1v0.1v-0.5c0.1-0.1,0.3,0,0.3-0.2c0,0,0.3,0,0.3,0.2c0.3-0.5,0.3-0.4,0.3-0.6c0,0,0.2-0.1-0.1,0
	l-0.1,0.1V241l0.1,0.1l0.1-0.2v0.1v-0.1v0.1v-0.3l0.1,0.2l0.1-0.4h0.3l-0.1,0.1h0.2l-0.1-0.1l-0.1-0.1c0.1,0,0,0,0-0.1
	c0-0.1-0.1-0.1-0.1-0.1s-0.3-0.1-0.3-0.3c0.1,0.2,0.1-0.2,0.1-0.2c0,0.1-0.1,0.1-0.2,0h-0.1c0-0.1,0-0.2,0.1-0.3h-0.1
	c0-0.1,0-0.2-0.1-0.3c0.2,0,0-0.3-0.1-0.3c-0.1-0.3,0.2-0.2,0.3-0.4h-0.1c0-0.2,0.3-0.4,0.5-0.4l0.2,0.2h0.1c-0.2,0-0.2-0.4-0.1-0.5
	c0.2,0,0.5-0.3,0.7-0.3l0.1,0.1c0.1,0.1,0.2,0.2,0.2,0.1v0.1c0-0.1,0.4-0.1,0.3,0.2c0,0,0.1,0,0.1,0.1l0.1-0.1c0.1,0,0.5,0,0.5,0.1
	l0.1-0.2c0-0.1,0.1-0.2,0.1-0.2v0.1h0.1v-0.1v0.1h0.3c0.1,0,0.3,0,0.3-0.1c0,0.3,0.2,0.2,0.2,0.4v-0.1v0.1v-0.1l0.1,0.1
	c0,0-0.1,0.1,0,0.2c-0.1,0.1,0,0.2,0,0.3v-0.1l-0.1,0.2c-0.1-0.1-0.2,0-0.3,0c0,0.2,0.2,0.3-0.1,0.4h0.1h-0.1c0,0,0.6,0.5,0.2,0.5
	c0,0,0.3,0.2,0.3,0l0.3-0.3v0.1c0.1,0,0.1-0.3,0.1-0.3h0.1c0.1-0.1,0.2-0.1,0.2,0.1c0.1-0.1,0.1-0.1,0-0.2v-0.2l0.2-0.1v0.3
	c0,0-0.1,0.2,0,0.3c0,0,0.4-0.2,0.2-0.3h0.3c0.1,0.1,0.2,0.2,0.1,0.4c0,0-0.1,0.2-0.2,0.3h0.1c0,0-0.1,0,0,0.2l0.1-0.1v0.2
	c0,0.2,0.2,0,0.2,0.3c0-0.1,0.1,0.3,0.1,0.4l0.1-0.1c0.1,0.2,0,0.3-0.1,0.4c0.1,0.1,0.1,0.1,0.1,0.3v0.1l0.2,0.1
	c0.1,0,0,0.1,0.1,0.2c0,0.2-0.1,0.2-0.1,0.2l-0.3,0.6l-0.3-0.2v0.1h0.1v0.3c0,0.1,0.2,0,0.2-0.2l0.1,0.1c0-0.2,0.1-0.1,0.2-0.2
	c0.1,0.1,0.3,0,0.2,0c0.1-0.2,0.2-0.1,0.4-0.1v0.1l0.1-0.1h0.1c0,0.2,0.1,0.2,0.2,0c0.2,0,0,0.5,0.1,0.6c0,0.1,0,0,0,0v0.2h0.2
	l-0.1,0.2l-0.2,0.2l0.1,0.2c-0.1,0,0,0.1-0.1,0.2c-0.2-0.5-0.2-0.3-0.1-0.2v0.1c0-0.1,0.1-0.1-0.1-0.1l-0.1,0.1c-0.2,0,0,0.2,0,0.3
	c0.1-0.2,0.2-0.1,0.3-0.1h0.2c0,0.1,0.1,0,0.2,0h0.1v0.1c0.1-0.1,0.3,0,0.3-0.4c0.1,0,0.1,0,0.2-0.1v0.1h0.1v0.1h0.1v0.2
	c0,0,0,0.1-0.1,0.2c0,0.1-0.1,0.2-0.2,0.2c0.1,0.1,0,0,0,0.1l0.2,0.1c0.1,0.1,0.2,0.2,0.3-0.1l0.3-0.2l0.1,0.2l0.1-0.1v0.1v-0.1h0.1
	l-0.1,0.4l-0.1-0.1l-0.1,0.1h-0.1v0.1l-0.1,0.1h0.1c0,0.2,0.2,0.2,0.3,0.3c0,0.3-0.1,0.3-0.3,0.4h0.1c0-0.2-0.1,0-0.1,0
	c-0.1,0.1-0.2,0.3-0.4,0.3v0.2V246v0.4c0,0-0.1-0.2-0.1,0.1l-0.1-0.3v0.2c0-0.1-0.1-0.1-0.2-0.1c0.1,0.1,0,0.1,0.1,0.3h-0.2v-0.2
	v0.1v-0.2l-0.2,0.2l-0.1-0.2v0.2l0.1,0.1v-0.1l0.1,0.1l0.1-0.1v0.1h0.1c0,0,0.1,0.1,0,0h0.1v0.1l0.2-0.1v0.2c0.1-0.1,0.1,0,0.3,0.1
	l0.1-0.1c0,0.2,0,0.3-0.2,0.3c0.1,0.1-0.2,0.2-0.2,0.2c-0.1,0-0.1-0.1-0.1,0.1h-0.2v0.1h-0.1v0.1v-0.1c0,0,0.1,0.1,0.1,0
	c0.2,0.1-0.3,0.3,0.3,0.1l0.1,0.1l0.1,0.1l-0.1,0.4h0.1h-0.1v0.3c0.2-0.1,0.1,0.2,0,0.2v0.2c0.5,0.1-0.3,0.7-0.2,0.5v-0.3h-0.2
	c-0.3,0,0-0.1-0.1-0.2h-0.1v0.1h-0.1c0.1,0,0.1,0,0.1,0.1c-0.1,0-0.2,0-0.1,0.1h-0.1h0.1h-0.1c-0.1,0,0.1,0.2,0.2,0.1l0.1,0.2v0.1
	c0.1-0.2,0.1,0,0.2,0.1v-0.1c0,0-0.1,0.3-0.2,0.2l0.1,0.1c-0.1,0-0.2,0.1-0.1,0.1c0.1-0.1,0.1,0.1,0.1,0.2h-0.6V250h-0.1v-0.1
	l-0.1,0.1h0.1l-0.3,0.2v0.1h-0.1v0.1c0,0,0-0.2-0.1,0h-0.1v0.1h0.1v0.2h-0.1l-0.2,0.3h0.1h-0.2c0,0,0.1-0.1,0.1,0v0.1
	c0.1,0.1,0.1,0.2,0.2,0.1v0.1c0.1,0,0-0.2,0.1-0.1c0,0,0.1,0.3,0.1,0.1v0.1c0,0,0.4,0,0.3,0.2v0.1l0.1-0.1c0.1,0,0.4,0,0.5-0.1
	c0,0.1,0.1,0.1,0.2,0v0.2l0.1-0.2c0,0.2,0.1-0.1,0.2-0.1h0.1v0.4l0.1-0.1v0.2l-0.1,0.1h0.1v0.2l0.2,0.2c0.1-0.1-0.1-0.1,0.1-0.1
	c0,0.1,0.1,0,0.1-0.1v0.1h0.3c0.1,0-0.1,0.1,0,0v-0.1h0.1v0.1c0,0.1,0.2,0,0.1,0.1v-0.1l0.3,0.5v-0.1v0.2c-0.2,0.3-0.1,0.3-0.3,0.3
	h-0.1h0.1h-0.1c-0.1,0-0.1,0.1-0.3,0c-0.1,0-0.2,0.1-0.2,0.2v0.2c0,0-0.2,0.2-0.2,0.1v0.1l-0.1,0.1c0,0,0.2,0.1,0.2,0l0.1-0.1
	c0.1-0.1,0.1-0.2,0.2,0.1c0,0,0.1-0.2,0.1,0c0-0.1,0.1-0.1,0.1,0h0.1v-0.1v0.1v-0.1l0.1,0.1l0.2-0.1v0.1c0.1-0.2,0.4-0.4,0.5-0.4
	c0,0.2,0.3,0.1,0.2,0h0.2v0.5c-0.2,0-0.4,0-0.5,0.2h-0.2v0.2l-0.1,0.1v0.2h0.1v0.2l0.2,0.2v0.1v-0.1h-0.5l-0.3,0.3h-0.1l-0.1,0.1
	v-0.1h-0.2c-0.1,0.1-0.3,0.2-0.4,0.3l-0.1-0.2l-0.1-0.1l-0.1,0.1l-0.1,0.2v0.1l-0.1,0.1c0.1-0.1,0.1,0,0.1,0l-0.1,0.1v-0.1l-0.1-0.1
	v0.1l-0.1,0.1l-0.1-0.1h0.1h-0.1c0-0.1,0,0,0.1-0.1l-0.1-0.1c0,0.3-0.1,0.2,0.1,0.4h-0.2h0.1v0.1c-0.1,0,0,0.1,0,0.2v-0.1l-0.1,0.2
	c0.2,0.1,0.2,0.1,0.1,0.1l-0.2-0.1l-0.4-0.3c0.1-0.2,0-0.1,0-0.2c0-0.1-0.1-0.1,0.1-0.2v-0.1l-0.1,0.1v-0.1c-0.1,0-0.3-0.1-0.3-0.2
	h0.1v-0.1h0.1v-0.1l0.1,0.1l0.1,0.1v0.1c0.1-0.1,0-0.2,0-0.3h-0.1v-0.1v0.1l-0.1,0.1l0.1,0.1h-0.1v-0.1c0,0-0.1-0.1-0.1,0v-0.2
	l0.2-0.1h-0.1l0.1-0.1v-0.2c0.1-0.2-0.2-0.2-0.1-0.2h-0.1v-0.2c0.1,0,0.1-0.1,0-0.1v0.1c-0.1-0.2,0-0.1,0-0.4h-0.1l0.1,0.1
	c-0.1,0-0.5-0.2-0.4-0.4v0.1c0.1-0.1,0-0.1,0-0.1v-0.1l-0.2,0.2l0.1,0.3l-0.1,0.2h-0.1c0,0-0.5,0.3-0.4,0.1h-0.3
	c0-0.1-0.3-0.1-0.3,0v0.1h0.1l0.1,0.1l-0.1,0.1c0,0,0.1,0.1,0.1,0.2c0.2,0,0.3,0.1,0.6,0.2V255l0.1,0.1v0.1h0.3
	c-0.1,0.1,0.2,0.1,0.2,0.1l-0.1,0.2c0.1-0.1,0.3,0.2,0.1,0.2c0-0.1-0.1-0.2-0.2-0.2v-0.2l-0.1,0.1c0-0.1,0,0-0.1,0.1v-0.1l-0.2-0.1
	h-0.2h0.1h-0.1c0-0.1-0.1-0.1-0.2-0.1h0.1v0.1c0-0.1,0-0.2-0.2-0.2h-0.1v0.1h-0.1v0.1l-0.2,0.2c-0.1-0.2-0.3-0.2-0.4-0.1v-0.1
	l-0.2-0.1h-0.1v-0.1v0.1v-0.1l-0.3-0.1h-0.2h0.1l-0.2-0.1v0.2l-0.1,0.1v-0.1h-0.2v0.1h-0.1v0.2h0.1v0.1h-0.1c0,0.1,0,0.1,0.1,0.1
	l0.1,0.1h-0.1h0.1c0.1,0.1-0.1,0.2,0.1,0.3l-0.2,0.2l-0.1-0.1h-0.1V256l-0.1,0.1l-0.1,0.1v9.8c0,2.3,1.9,4.2,4.2,4.2h8.5
	c8.8,0,11.9-4.1,13-8c0.4-1.6,0.6-3.2,0.6-4.3v0.2v-2.4c0-0.4-0.3-0.7-0.7-0.7h-7.8c-0.4,0-0.7,0.3-0.7,0.7v0.3
	c0,3.6-0.5,5.2-4.3,5.2c-4,0-4.3-2.5-4.3-6.5v-7.6c0-4,0.3-6.5,4.2-6.5h0.1c3.9,0,4.3,1.6,4.3,5.4v0.4c0.1,0.3,0.4,0.6,0.7,0.6h7.8
	c0.3,0,0.6-0.2,0.7-0.5v-2.1c0-1-0.1-3.1-0.5-4.7c-1-3.8-3.9-7.9-12.3-8.1h-2.4C-120,231.2-123.1,233.5-124.8,236.3"/>
<g>
	<defs>
		<path id="SVGID_1_" d="M-128.7,257.5l0.1-0.1L-128.7,257.5 M-128.9,257.2v-0.1V257.2 M-128,257.1v0.4h0.1
			C-128,257.3-127.9,257.2-128,257.1 M-130.1,256.6c0.1,0.1-0.1,0.2,0,0.2V256.6 M-128.7,256.4l0.1,0.1L-128.7,256.4L-128.7,256.4
			 M-127.2,256.4v0.1h0.1l0.1-0.1H-127.2 M-128.1,256.2l0.1,0.1L-128.1,256.2 M-128.3,256.2c-0.1,0.1,0,0.1,0,0.1V256.2
			 M-127.4,256.2v-0.1V256.2 M-128,256l0.1,0.1C-127.8,256.1-127.8,256-128,256C-127.8,256.1-127.9,256-128,256
			C-127.9,256.1-127.9,256-128,256 M-128.5,256C-128.4,256-128.4,256-128.5,256 M-127.6,255.9l-0.1,0.1h0.1V255.9 M-125.8,255.8v0.1
			V255.8c0,0.1-0.1,0.2-0.1,0.2h0.1c0,0,0-0.1,0,0V255.8 M-128.4,255.9l0.1-0.1L-128.4,255.9 M-128.3,255.6c0.1,0,0,0.1,0,0.1V255.6
			L-128.3,255.6 M-129.5,255.7h-0.1v-0.1c0,0.1-0.2,0.4-0.3,0.3C-129.9,256.2-129.5,255.7-129.5,255.7l0.1-0.1L-129.5,255.7
			 M-127.1,255.5L-127.1,255.5C-127.2,255.8-127.1,255.7-127.1,255.5L-127.1,255.5 M-126.6,255.5L-126.6,255.5l0.1-0.1L-126.6,255.5
			l0.1-0.1L-126.6,255.5 M-119.8,255.5l-0.1,0.1l0.1,0.1V255.5L-119.8,255.5c0,0.2,0,0.3,0.1,0.2h-0.1V255.5l0.1,0.2l0.1-0.1v0.1
			c0-0.1,0.1-0.3-0.1-0.3c0.1,0,0,0.1,0,0c0,0.1-0.1,0,0,0L-119.8,255.5 M-130.4,255.3C-130.5,255.2-130.4,255.4-130.4,255.3
			 M-126.2,255.2C-126.1,255.3-126.2,255.2-126.2,255.2v-0.1V255.2 M-125.9,255L-125.9,255L-125.9,255L-125.9,255 M-122.5,255
			L-122.5,255c0.2,0.1,0.2,0.1,0.2,0h0.1v-0.1L-122.5,255 M-118,255L-118,255L-118,255L-118,255 M-124.2,255.2l0.2-0.1h-0.2V255
			V255.2 M-122.5,255.1v-0.2C-122.5,254.9-122.6,255.1-122.5,255.1 M-126.1,255.1v0.2C-126.1,255.2-126,255.2-126.1,255.1v0.1v-0.3
			V255.1v-0.2V255.1v-0.2V255.1 M-129.2,254.9v0.2V254.9 M-122.4,254.8v0.1V254.8l0.1,0.1L-122.4,254.8 M-120.1,254.8
			c0,0.1,0.1,0.3,0.1,0.3h0.2L-120.1,254.8L-120.1,254.8L-120.1,254.8 M-119.9,254.7C-120.1,254.8-119.9,254.7-119.9,254.7
			 M-129,254.7L-129,254.7c-0.1,0.1-0.2,0.3-0.2,0.3l0.1-0.1C-129.1,254.8-129,254.8-129,254.7h0.3H-129 M-119.8,254.7l0.1,0.2v0.1
			L-119.8,254.7L-119.8,254.7C-119.7,254.6-119.7,254.7-119.8,254.7l0.1-0.1L-119.8,254.7 M-120.2,254.6v0.3l0.1,0.1L-120.2,254.6
			 M-120,254.5l0.1,0.1v-0.1C-119.9,254.5-119.9,254.6-120,254.5 M-123.7,254.5C-123.8,254.6-123.7,254.6-123.7,254.5L-123.7,254.5
			L-123.7,254.5L-123.7,254.5 M-122.5,254.8l0.1-0.1l-0.2-0.1C-122.6,254.7-122.6,254.8-122.5,254.8 M-120.3,254.6l-0.1-0.2
			L-120.3,254.6 M-121.5,254.5h0.1H-121.5 M-125.7,254.4l0.2,0.1v-0.2l-0.2-0.1V254.4 M-124.2,254.2v0.2V254.2 M-129.8,254.2v0.2
			V254.2v0.2V254.2 M-125.4,254.2h-0.1C-125.3,254.4-125.4,254.3-125.4,254.2 M-130.4,254.2C-130.4,254.1-130.3,254.2-130.4,254.2
			 M-129.7,254.1C-129.7,254.1-129.9,254.2-129.7,254.1 M-131,254.1c0,0.1-0.2,0.1-0.1,0.1l0.1,0.1V254.1l0.1,0.1h-0.1h0.1
			L-131,254.1 M-120.5,254l0.1,0.1v0.1c0.1,0-0.1,0,0,0.1h0.1c0,0.2,0,0.1,0.1,0.1l0.1,0.1v-0.2v0.1l-0.3-0.2L-120.5,254L-120.5,254
			 M-129.5,254.1V254C-129.7,254-129.6,254.1-129.5,254.1 M-124.1,254.1C-124.2,254.1-124.1,254.1-124.1,254.1
			C-124.2,254.1-124.5,254.2-124.1,254.1l0.1-0.1v-0.2L-124.1,254.1 M-128.4,254h0.1H-128.4 M-121,253.7v0.1V253.7L-121,253.7
			 M-128.8,253.8l-0.2,0.2h0.1l0.1,0.2h0.1l0.1-0.1C-128.7,254.2-128.7,253.9-128.8,253.8l0.1,0.1
			C-128.6,253.8-128.7,253.7-128.8,253.8 M-128.2,253.8v0.1V253.8l0.2-0.2h-0.3L-128.2,253.8 M-122,253.8l0.1,0.1v0.3v-0.1h0.1
			c0.1-0.1,0.2,0,0.2,0l0.1-0.1c-0.1,0,0,0,0,0L-122,253.8c0-0.2,0-0.3-0.1-0.3C-122.1,253.6-122.1,253.7-122,253.8 M-127,253.4
			c0,0.1,0,0.2-0.1,0.2c0,0.1,0.1,0.3,0.1,0.3h-0.1c0,0.1,0.1,0.1,0,0.2s0.1,0.1,0.2,0.2c0,0.1,0.4,0.3,0.5,0.1v-0.2
			c0,0.1,0.1-0.1,0.1-0.1c0,0.1,0.1-0.1,0.1-0.1v-0.1l-0.1,0.1c-0.1-0.1,0.1-0.2,0-0.2v-0.1c0,0.1,0.2-0.1,0.2-0.1l-0.1-0.1l0.1,0.1
			h-0.2l-0.3,0.4c0-0.2-0.1-0.3-0.2-0.4h0.1l-0.1-0.1h0.1l-0.1-0.1H-127 M-126.7,253.3v0.2h0.1v0.1c0-0.1,0.1-0.1,0.1-0.2
			L-126.7,253.3 M-121.8,253.2l0.1,0.1l0.1-0.1c-0.1,0.2,0.1,0.2,0.2,0.2v0.2v-0.1v0.1l0.1-0.1c0,0.1,0.1,0.1,0.1-0.1h-0.1l0.1-0.2
			h-0.1l-0.1-0.1c-0.1,0.1-0.1,0.1-0.1,0l-0.1,0.1c-0.1,0-0.2,0-0.2-0.1V253.2 M-122.7,253.1l0.1,0.1
			C-122.6,253-122.7,253.1-122.7,253.1 M-118.4,253C-118.4,253-118.5,253.1-118.4,253 M-121.9,253.1c0,0-0.2,0.1-0.1,0.1
			L-121.9,253.1v0.2C-121.9,253.6-121.6,253.3-121.9,253.1 M-123.2,253c0,0.2,0.1,0.1,0.1,0.2l0.3-0.2c-0.1,0-0.2-0.1-0.3-0.1
			L-123.2,253 M-118.3,253.1L-118.3,253.1C-118.3,253-118.4,253.1-118.3,253.1 M-130.8,252.7C-130.7,252.7-130.7,252.7-130.8,252.7
			 M-130.6,252.7L-130.6,252.7L-130.6,252.7 M-127.1,252.6l-0.1,0.1L-127.1,252.6L-127.1,252.6 M-124.3,252.5L-124.3,252.5
			L-124.3,252.5 M-130.7,252.4l0.2,0.1l-0.1,0.1l0.1,0.1l0.1-0.1v-0.1l-0.2-0.2L-130.7,252.4 M-126.7,252.2h0.1H-126.7l0.2,0.1
			l-0.1-0.1H-126.7 M-127.4,252.2L-127.4,252.2L-127.4,252.2L-127.4,252.2 M-127,252.3C-127.1,252.3-127.1,252.4-127,252.3v0.2
			l0.1,0.1h0.1l0.1-0.1c0,0-0.1,0.2,0,0v0.1h0.2c0-0.2-0.2-0.1-0.2-0.2c0.1-0.1-0.1-0.1-0.2-0.1H-127l0.2-0.1
			C-126.8,252.1-127.2,252.2-127,252.3 M-123.6,252.2v0.1V252.2 M-123.7,252.2c0-0.1,0.1-0.2,0-0.1V252.2V252h-0.1
			C-123.8,252.2-123.7,252.2-123.7,252.2 M-126.4,252.1L-126.4,252.1L-126.4,252.1C-126.4,252-126.5,252-126.4,252.1 M-123.2,252
			c0,0-0.1,0.2-0.1,0.3L-123.2,252L-123.2,252 M-125.5,252c0,0.1-0.2,0.1-0.2,0.2l0.1,0.1v0.1l-0.2,0.2l0.3,0.1l0.1-0.1l0.1,0.1h0.2
			l0.1,0.1c0-0.1,0-0.3-0.1-0.3v0.1v-0.4v0.1c0,0-0.1-0.1,0-0.1h-0.3C-125.3,252.2-125.4,252-125.5,252
			C-125.6,252.1-125.4,252-125.5,252 M-124,252C-124.1,252.1-124,252-124,252 M-125.4,252l0.1,0.1C-125.2,252-125.3,252-125.4,252
			 M-126,251.9v0.1V251.9v0.3h0.1c0-0.1,0-0.1,0,0l-0.1-0.1C-125.9,252.1-126,252-126,251.9 M-127.4,251.9c-0.2,0.1,0,0.2,0,0.2
			V251.9 M-124.3,251.9c0,0.1,0,0.3,0.1,0.1v0.1L-124.3,251.9 M-124.1,251.8c0,0,0,0.3,0.1,0.2c0.1,0.1,0.1,0.2,0.2,0.2l-0.1-0.1
			l0.1-0.1v-0.1c0,0-0.1,0.1,0,0h-0.1c0.1,0,0,0,0,0S-123.9,251.8-124.1,251.8 M-126.3,251.7h0.1H-126.3 M-123.7,251.6L-123.7,251.6
			L-123.7,251.6 M-127.1,251.6C-127.1,251.7-127.1,251.6-127.1,251.6 M-123.1,251.7c0,0.1,0.2,0.3,0.2,0.4v0.1V252v0.1v-0.5
			C-123,251.8-123,251.7-123.1,251.7l0.1-0.2L-123.1,251.7 M-130,251.6h0.1H-130 M-124.3,251.6l0.2,0.1l0.1-0.1v-0.1h-0.1l-0.1-0.1
			L-124.3,251.6 M-122.8,251.5h0.3c0-0.1-0.1-0.1-0.2-0.1L-122.8,251.5 M-122.5,251.4l0.1,0.1L-122.5,251.4 M-123.9,251.4
			L-123.9,251.4L-123.9,251.4 M-123.1,251.3l0.1,0.1L-123.1,251.3 M-124.1,251.4v-0.1C-124.2,251.4-124.2,251.4-124.1,251.4
			 M-123.2,251.4l0.1-0.1L-123.2,251.4 M-123.6,251.2L-123.6,251.2c-0.1,0.2-0.2,0.2-0.2,0.3c0,0,0.2,0,0,0.1l0.2-0.1V251.2
			 M-126.6,251.2c0-0.1-0.1,0-0.1,0.1L-126.6,251.2c0.1,0.1,0.1,0.2,0.1,0H-126.6 M-123.5,251.1
			C-123.5,251.1-123.6,251.3-123.5,251.1 M-123.9,251.1l0.1,0.1L-123.9,251.1L-123.9,251.1 M-122.6,251.1c0.1,0.1,0.1,0,0.1,0.1
			v-0.1H-122.6 M-122.7,250.8L-122.7,250.8L-122.7,250.8L-122.7,250.8 M-124.1,250.7C-124.2,250.7-124.2,250.7-124.1,250.7
			C-124.3,250.9-124.1,250.7-124.1,250.7 M-124,250.8C-124,250.8-124.1,250.8-124,250.8 M-121.2,250.7v0.2V250.7 M-128.1,250.6
			C-128.1,250.5-128,250.5-128.1,250.6L-128.1,250.6 M-123.5,250.5l0.2,0.1v-0.1H-123.5v-0.1V250.5 M-127.7,250.5
			C-127.7,250.6-127.7,250.6-127.7,250.5l0.1-0.2L-127.7,250.5 M-121,250.4v0.2h-0.1v-0.1c0,0,0.2,0.1,0.2,0v-0.1
			c0.1-0.1,0-0.2-0.1-0.2V250.4 M-122,251.6C-122,251.7-122,251.6-122,251.6 M-121.9,251.2l0.1,0.1
			C-121.9,251.4-121.9,251.3-121.9,251.2v0.1V251.2C-121.8,251.2-121.8,251.2-121.9,251.2 M-122.9,250.4l-0.1-0.1l0.3,0.3
			c0-0.2,0.3,0.2,0.3,0.2l0.1-0.2h0.1v0.1l-0.1,0.1v0.1v-0.1v0.1c0-0.1,0.1,0.1,0.1,0.1h-0.1c0,0.1,0.2,0.2,0.1,0.3h-0.1l-0.1,0.1
			c-0.1,0.3-0.1,0.1-0.2,0.1v-0.1h-0.1v0.4c0,0,0.2,0,0.1-0.1l0.1-0.1c0,0.1,0.1,0.1,0.1,0l0.1,0.2v0.1l0.3,0.1c0,0,0.4-0.4,0.2-0.5
			v-0.1h-0.1c0,0-0.1,0.1-0.1,0c0.1,0,0.1-0.2,0.1-0.2v-0.1h-0.1c0.2,0-0.1-0.3-0.2-0.2c0,0,0-0.4-0.2-0.3l-0.2-0.1l-0.1-0.2
			c-0.1,0,0.1,0.2,0,0.2C-122.7,250.4-122.8,250.4-122.9,250.4l0,0.1h0.1h-0.1v0.1l-0.1-0.2C-123,250.5-123,250.4-122.9,250.4h-0.2
			C-122.8,250.2-122.9,250.3-122.9,250.4 M-123.8,250.3L-123.8,250.3L-123.8,250.3 M-121.3,250.3L-121.3,250.3L-121.3,250.3
			 M-123.7,250.2v0.1C-123.6,250.2-123.7,250.2-123.7,250.2 M-121.6,250.2v0.2h0.1c0,0.1,0,0.2,0.1,0c0,0.1,0,0.1,0.1,0.1h-0.1
			c0.1,0,0.3-0.1,0.3-0.2c0-0.1-0.2,0-0.3,0v-0.1h-0.1c0-0.2-0.1-0.1-0.1-0.1V250.2l0.1-0.1L-121.6,250.2 M-128.5,250.2v-0.1V250.2
			 M-121.3,250L-121.3,250C-121.3,250.1-121.2,250-121.3,250 M-127.7,250L-127.7,250L-127.7,250 M-121.5,250
			C-121.5,250-121.4,250.1-121.5,250 M-126.6,250l0.1-0.1L-126.6,250 M-126.7,250.6C-126.6,250.7-126.7,250.6-126.7,250.6
			 M-126.5,250.2h-0.2c-0.1-0.2-0.1,0.2-0.1,0.2l-0.1,0.1h-0.1l0.1,0.1h-0.2v0.1h-0.1c0,0,0,0.3,0.1,0.1v0.1
			c-0.1-0.1-0.2,0.1-0.2,0.2v0.1l-0.2-0.1v0.1h-0.1v-0.1c-0.1,0-0.1,0.2-0.2,0.1v0.2h0.1v0.1h0.1v0.2l0.2,0.1h-0.1l0.2-0.3v-0.1
			c0,0.1,0.1,0,0.1-0.1l0.3-0.1c-0.1-0.1,0-0.1,0-0.3c0.2,0,0.1,0.1,0.1,0.1c0.1,0,0,0,0.1-0.1h0.1v-0.1h0.2
			c0.1-0.3-0.1-0.4,0.1-0.4c0-0.1,0-0.2,0.1-0.1v0.1c0.2,0,0-0.2,0-0.2h0.2l0.1-0.1c-0.1,0-0.1-0.1-0.1-0.2
			C-126.3,249.9-126.5,250.2-126.5,250.2 M-128,249.9c0,0,0.1,0.1,0,0.2V250v0.2c0.1,0.2,0.2,0,0.1-0.2
			C-127.9,250-127.9,249.8-128,249.9 M-126.4,249.8C-126.4,249.9-126.4,249.9-126.4,249.8L-126.4,249.8L-126.4,249.8 M-120.9,249.7
			l0.1,0.2v-0.1h0.1v-0.1H-120.9 M-128.2,249.6c-0.2,0.1,0.1,0.4,0.1,0.3l-0.1-0.1h0.1L-128.2,249.6 M-128.2,249.5
			C-128.2,249.6-128.1,249.5-128.2,249.5 M-126.5,249.3L-126.5,249.3L-126.5,249.3C-126.6,249.3-126.6,249.4-126.5,249.3l-0.1,0.2
			v0.1h-0.1c0,0.1-0.1,0.2-0.1,0.1c-0.1,0-0.3,0.2-0.2,0.3c0.2,0,0.2-0.1,0.3-0.3l-0.1,0.1l0.1-0.1l0.2-0.1l-0.1-0.1v-0.1l0.2-0.2
			C-126.4,249.3-126.5,249.3-126.5,249.3 M-126.9,249.3c0.1,0.1,0,0.1,0,0.2h0.2c0.2-0.1,0-0.2,0.1-0.3L-126.9,249.3 M-127.5,249.1
			L-127.5,249.1L-127.5,249.1L-127.5,249.1C-127.3,249.2-127.6,249.2-127.5,249.1L-127.5,249.1L-127.5,249.1 M-124.8,249.1l-0.2,0.2
			h0.1C-124.8,249.3-124.8,249.2-124.8,249.1 M-126.3,249c0,0.1,0.1,0.1,0.1-0.1L-126.3,249 M-122.6,248.9L-122.6,248.9
			L-122.6,248.9 M-121.3,248.8l0.1-0.1l-0.1-0.1V248.8 M-121.7,248.7l0.1,0.1L-121.7,248.7 M-124.9,248.7l0.1,0.1L-124.9,248.7
			 M-124.1,248.7v0.1l-0.1,0.1v0.1h0.1v-0.1C-123.9,248.8-124,248.7-124.1,248.7 M-121.9,248.8v-0.2V248.8 M-124.9,248.7
			C-125,248.6-125,248.7-124.9,248.7 M-120.1,248.7C-120.1,248.7-120,248.7-120.1,248.7h0.2l-0.1,0.2l0.1,0.1
			c-0.1,0-0.1-0.1-0.2-0.1v0.1c0.1,0,0.1,0.1,0.2,0.1l0.3-0.1c0-0.1,0-0.1-0.1,0v-0.2l-0.1-0.1l-0.2-0.1L-120.1,248.7 M-120.4,248.6
			c0.1,0.1,0,0.2,0.1,0.2L-120.4,248.6 M-121.5,248.6c0,0,0,0.1,0.1,0.1L-121.5,248.6 M-120.1,248.5
			C-120.2,248.6-120.1,248.7-120.1,248.5 M-120.9,248.7C-120.9,248.8-121,248.7-120.9,248.7l-0.1,0.2v0.1h0.2L-120.9,248.7
			c0.1,0.2,0.2,0.2,0.2,0.3l0.1-0.1c-0.1,0,0.1,0.1,0.2,0.1h0.2v0.1c0-0.2-0.1-0.1-0.1-0.1v-0.1l-0.1,0.1l-0.1-0.2h-0.1
			c0-0.1,0-0.1,0.1-0.1h-0.1c-0.1,0-0.1,0-0.2-0.1L-120.9,248.7 M-124.7,248.6L-124.7,248.6L-124.7,248.6 M-122.9,248.5
			L-122.9,248.5L-122.9,248.5 M-123.1,248.5L-123.1,248.5L-123.1,248.5 M-121.1,248.5v0.3l0.1-0.1c0,0.1,0.1-0.1,0.1-0.1
			L-121.1,248.5 M-125.5,248.3v0.2h-0.2v-0.1l-0.1,0.2h-0.1c0,0.1,0.2,0.3,0.3,0.2c0.1,0.2,0.5-0.1,0.3-0.1v-0.1h-0.1
			c0.1,0,0-0.1,0-0.1L-125.5,248.3 M-121.9,248.3v0.1l0.1,0.1c0,0,0.2,0,0-0.1L-121.9,248.3 M-123.4,248.5L-123.4,248.5
			L-123.4,248.5h-0.2v0.1h-0.1v0.1h0.2l0.1-0.3C-123.4,248.4-123.5,248.3-123.4,248.5 M-122,248.4C-121.8,248.4-122,248.4-122,248.4
			 M-124.7,248.3v0.1V248.3 M-126.9,248.4c0.1,0.1,0.1,0,0.1-0.1L-126.9,248.4 M-121.9,248.3C-122,248.3-121.9,248.3-121.9,248.3
			 M-119.2,248.2L-119.2,248.2L-119.2,248.2C-119.2,248.3-119.1,248.1-119.2,248.2 M-122,248c0.1,0.1,0.2,0.3,0.3,0.1h-0.1L-122,248
			 M-123.6,248l0.1,0.1v-0.2L-123.6,248 M-123.8,248l0.1-0.1L-123.8,248 M-122.5,248l0.2,0.1v0.1h-0.1c-0.3-0.6,0,0,0,0.1h-0.1
			l0.1,0.1v-0.1l0.1-0.1v0.2l0.1-0.1l0.2,0.1h-0.1c0.1-0.2-0.2-0.2-0.2-0.2c0-0.2,0.1-0.4-0.1-0.4v-0.1l-0.2-0.1
			C-122.5,247.8-122.5,247.9-122.5,248 M-122.7,247.7l0.1-0.1L-122.7,247.7 M-122.6,247.6C-122.6,247.7-122.5,247.7-122.6,247.6
			 M-122.7,247.6v0.1V247.6 M-125,247.5L-125,247.5L-125,247.5 M-122.7,247.5C-122.6,247.4-122.6,247.4-122.7,247.5v-0.1
			C-122.7,247.4-122.8,247.5-122.7,247.5 M-123.9,247.5v0.3l0.1-0.1v0.1l0.2-0.1l0.2-0.1c0-0.2-0.1-0.2-0.1-0.2h-0.1
			c-0.1,0,0,0,0-0.1C-123.8,247.2-123.9,247.4-123.9,247.5 M-119.6,247.2L-119.6,247.2L-119.6,247.2L-119.6,247.2 M-126.4,247.1
			C-126.5,247.2-126.4,247.3-126.4,247.1 M-126.4,247v0.2C-126.3,247.2-126.2,247-126.4,247 M-124.8,247.1V247V247.1 M-123.4,247.1
			v0.1V247.1v0.2c0,0.1,0.1,0.1,0.2,0.1h0.1v-0.3l-0.1-0.1C-123.3,247-123.4,247.1-123.4,247.1 M-123.5,246.9
			C-123.5,246.9-123.5,247.1-123.5,246.9 M-126.7,247.1v0.1c0.1-0.1,0.1,0,0.1,0.1L-126.7,247.1c-0.1-0.1,0-0.1,0-0.2h-0.1
			C-126.7,246.9-126.7,247-126.7,247.1 M-123.3,246.9v-0.1V246.9 M-126.2,246.8l0.1,0.1h0.1C-126.1,246.7-126.1,246.8-126.2,246.8
			 M-128.9,246.8C-128.9,246.8-128.9,247-128.9,246.8l0.1-0.1L-128.9,246.8 M-128.8,246.9l0.1-0.2L-128.8,246.9 M-124.3,246.7
			L-124.3,246.7L-124.3,246.7l0.1,0.2l0.1-0.1c0,0,0.1,0.3,0.2,0.1c-0.1-0.1-0.1-0.2-0.2-0.1v-0.1H-124.3 M-126.5,246.5v0.3
			c0.1,0.1,0,0.2,0.1,0v0.1C-126.2,246.9-126.5,246.6-126.5,246.5l0.1,0.2l0.1-0.1l-0.1,0.1c0-0.1,0.1-0.1,0.1-0.1
			C-126.5,246.5-126.5,246.7-126.5,246.5 M-121.9,246.5L-121.9,246.5v-0.2V246.5 M-120.7,246.4v0.1V246.4 M-119.7,246.4v-0.2V246.4
			 M-126.4,246.3c0.1,0-0.1,0.2,0,0.2V246.3l0.1,0.2C-126.3,246.3-126.4,246.3-126.4,246.3 M-129.1,246l0.1-0.1
			C-129.1,245.9-129.1,245.9-129.1,246 M-120.8,246L-120.8,246L-120.8,246L-120.8,246L-120.8,246L-120.8,246l0.1,0.2h-0.2
			c0.1,0.1,0.2,0.2,0.3,0.2l0.1,0.1h0.2l0.1-0.1v-0.2h-0.5L-120.8,246c-0.1,0.1,0.1,0,0.1-0.1C-120.6,245.8-120.8,245.9-120.8,246
			 M-125.5,246L-125.5,246L-125.5,246 M-125.7,245.8l-0.1,0.1h-0.2l0.1-0.1l-0.1,0.2h-0.1c0.1,0,0-0.1,0.1-0.1
			c0-0.1-0.1-0.1-0.1-0.1v0.3l-0.2,0.1v0.1h-0.1c0,0.2,0.1,0.2,0.2,0.2h0.1v-0.1h0.2v0.2c0.1,0.2,0,0.2-0.1,0.2v0.1l0.1,0.1
			l-0.2,0.2h0.2c0.1,0.1,0.1,0.1,0.3,0c0.1,0,0.4-0.3,0.4-0.1l0.1-0.1l0.2,0.1v-0.3c0.2,0.3,0.2-0.4,0.2-0.4c0-0.1-0.2-0.1-0.2-0.1
			h-0.2c0.1-0.1,0-0.1,0-0.2c0,0-0.3,0.1-0.2,0h0.1l-0.1-0.1c-0.1-0.1-0.1-0.1-0.2-0.3h0.1v-0.1L-125.7,245.8 M-125,245.6v0.2h0.1
			L-125,245.6 M-121.1,246.3C-121.4,246.2-121.1,246.2-121.1,246.3L-121.1,246.3 M-121.2,245.7h-0.3v0.2h-0.1v-0.1l-0.1-0.2h-0.1
			c0.1,0.1,0,0.2,0,0.3h0.1c0,0.1,0.1,0,0.2,0h-0.1c0,0.1,0.1,0,0.1,0.1h-0.1l0.1,0.1h-0.1l-0.1-0.1v-0.1l-0.1,0.1l0.2,0.2v-0.1v0.1
			h0.2c0,0.2,0.1,0,0.2,0c0,0.1,0.1,0.2,0,0.3h0.3c0.1,0.2,0.3,0,0.3,0v0.1v-0.1c-0.1,0.1-0.2-0.1-0.3-0.2l-0.1-0.1V246l-0.1,0.1
			V246l0.1,0.1v-0.2v0.1h-0.1v-0.2L-121.2,245.7l0.1,0.1c0-0.1,0.1-0.2,0-0.3L-121.2,245.7 M-126,245.7v-0.1V245.7 M-126,245.6
			l0.1,0.2L-126,245.6h0.2v0.1l0.1-0.1H-126 M-122,245.5c-0.1-0.1-0.1,0-0.1-0.1h-0.1l-0.2,0.2v0.1l0.1,0.1v-0.1v0.1l0.1-0.1
			l-0.1,0.1c0.1,0,0.1-0.1,0.1-0.2v-0.1C-121.9,245.7-121.9,245.6-122,245.5v-0.2C-122,245.4-121.9,245.5-122,245.5 M-125.5,245.4
			l0.1,0.1h0.1v-0.1l0.1,0.1v0.1h-0.1v0.1c0.1-0.2,0.3-0.1,0.3,0.1v-0.2c0,0.1,0,0,0,0v-0.1h-0.2v-0.1c0,0.1,0.1,0,0.1,0H-125.5
			 M-126.1,245.4L-126.1,245.4L-126.1,245.4 M-119.4,245.4c-0.2,0.1,0.2,0.2,0.3,0.2L-119.4,245.4h0.2H-119.4c0.1,0.1-0.1-0.2,0-0.2
			h-0.2C-119.6,245.4-119.5,245.4-119.4,245.4 M-126.7,245.2C-126.7,245.4-126.6,245.2-126.7,245.2 M-126.5,245.3L-126.5,245.3
			L-126.5,245.3c-0.2,0-0.3,0.1-0.3,0h-0.1v0.2l-0.1,0.1c-0.1,0.3,0.2,0.1,0.4,0.2v-0.1l0.1-0.2V245.3L-126.5,245.3L-126.5,245.3
			L-126.5,245.3c0.1,0,0.2,0.1,0.2-0.1h-0.1c0,0-0.1,0-0.1-0.1V245.3 M-122.2,245.2h-0.1H-122.2 M-121.7,245.1
			c0,0.3,0.3,0.1,0.3,0.1h-0.1L-121.7,245.1 M-120.9,245.1l-0.2,0.2v0.2h-0.1c0.1,0,0,0,0,0l0.2,0.4c0-0.1,0-0.3,0.1-0.2v0.1
			c0.1,0,0.2-0.1,0.2-0.2v0.1l0.1-0.1v-0.5h-0.1c0,0.1,0.1,0.2,0.1,0.3c0,0-0.1-0.3-0.2-0.2L-120.9,245.1v0.1V245.1v0.1
			C-120.9,245.1-120.8,245.1-120.9,245.1C-120.8,245-120.9,245.1-120.9,245.1 M-121.1,245c0,0,0.1,0.1,0.1-0.1L-121.1,245
			 M-124.3,244.8c-0.1,0.2-0.1,0.2,0,0.2c0,0-0.1,0.1,0,0.2C-124.3,245-124.2,244.9-124.3,244.8 M-125.1,244.8l-0.1,0.1
			L-125.1,244.8c-0.2,0-0.1,0.2-0.1,0.1l-0.1,0.1h0.4v0.1v-0.2C-124.8,244.9-125,244.9-125.1,244.8
			C-124.9,244.8-125.1,244.8-125.1,244.8 M-118.8,244.8C-118.8,245-118.7,244.8-118.8,244.8L-118.8,244.8L-118.8,244.8
			 M-125.2,244.5L-125.2,244.5L-125.2,244.5 M-124.8,244.4l0.1,0.1h-0.1c-0.1,0.1,0.1,0.1,0.1,0v0.1c0.1,0,0.1,0,0.1-0.1h-0.1
			L-124.8,244.4L-124.8,244.4L-124.8,244.4L-124.8,244.4L-124.8,244.4l0.1-0.1h-0.1V244.4 M-123.2,244.4c0.1-0.1-0.2-0.1-0.2,0
			l-0.1-0.1v0.1l-0.1-0.1v0.1c0,0,0.2,0.3,0.3,0.2c0-0.2,0.3-0.1,0.3-0.1l0.1,0.1l0.1,0.1v0.1l-0.2-0.1l-0.1,0.1l0.2,0.2
			c0,0.1,0.1,0.1,0,0.1v0.1h-0.1c0,0.1,0.1,0.1,0.1-0.1c0.1,0,0.1-0.3,0.2-0.4v0.1c0,0.1,0,0.1-0.1,0.2l0.1-0.1h0.1v-0.1h-0.1
			c0.1,0-0.3-0.4-0.2-0.5l-0.1,0.1v-0.2L-123.2,244.4 M-125,244.3L-125,244.3l0.1,0.2h0.1h-0.1C-124.8,244.4-125,244.2-125,244.3
			 M-123.8,244.5h-0.2v-0.2c0,0,0-0.1-0.1,0l-0.2,0.2v0.1v-0.1c0,0.1,0.1,0.2,0.2,0c0,0.1,0,0.2,0.1,0.1c-0.1,0.1,0.1,0.2,0.1,0.2
			v0.1v-0.1l0.2,0.1C-123.7,244.8-123.8,244.5-123.8,244.5h0.1H-123.8c0.1,0,0-0.1,0.1-0.2l-0.1-0.1V244.5 M-125.6,244.1
			L-125.6,244.1c-0.1,0.1,0,0.1,0.1,0.2v0.1c0.1-0.1,0.1-0.1,0.1-0.2C-125.4,244.1-125.5,244.1-125.6,244.1L-125.6,244.1
			 M-124.9,243.9v0.1V243.9 M-125.7,243.7L-125.7,243.7L-125.7,243.7 M-123.6,243.7l-0.1,0.1h0.1
			C-123.7,243.7-123.5,243.7-123.6,243.7L-123.6,243.7 M-123.8,243.6L-123.8,243.6l-0.2,0.1v0.2c0.1,0,0.2,0.2,0.2,0L-123.8,243.6
			l0.1,0.2L-123.8,243.6L-123.8,243.6 M-122.5,242.9h0.2C-122.3,242.8-122.4,242.9-122.5,242.9L-122.5,242.9L-122.5,242.9
			L-122.5,242.9 M-124.8,242.9h0.1c0.1,0,0.1-0.2,0.1-0.2h-0.1C-124.8,242.7-124.8,242.8-124.8,242.9 M-122.7,242.8v0.2V242.8
			L-122.7,242.8L-122.7,242.8c0,0,0.1-0.1,0-0.1V242.8 M-124.9,242.6C-124.8,242.6-124.8,242.7-124.9,242.6 M-123.6,242.5
			C-123.7,242.6-123.6,242.5-123.6,242.5 M-124.8,242.6L-124.8,242.6v-0.1C-124.8,242.4-124.9,242.6-124.8,242.6 M-124,242.4v0.1
			V242.4v0.1c0-0.1-0.1,0.1-0.2,0.2h0.1h-0.1h0.1v-0.1v0.1h0.1h-0.1h0.1v-0.1l0.2-0.1v-0.1H-124 M-123.5,242.3
			C-123.5,242.2-123.6,242.3-123.5,242.3L-123.5,242.3c0.1,0.1,0,0.3,0.1,0.2c0,0.1,0.1,0.2,0.1,0.1c0.1,0,0.1,0,0.2-0.1v0.1h0.1
			l0.1-0.1h-0.2c0,0,0-0.1-0.1-0.2l0.1,0.1h-0.2v-0.1v0.1L-123.5,242.3C-123.5,242.4-123.5,242.4-123.5,242.3 M-121.9,242.2
			C-121.9,242.3-121.9,242.2-121.9,242.2 M-123.6,242.2v-0.1V242.2 M-125.7,242l-0.1,0.2L-125.7,242v0.2V242 M-121.8,242
			C-121.5,242.1-121.7,242-121.8,242v-0.1V242 M-124.4,241.9l-0.1,0.1L-124.4,241.9L-124.4,241.9l-0.2,0.2l0.1-0.1L-124.4,241.9v0.1
			l0.2-0.1C-124.2,241.9-124.4,242-124.4,241.9 M-124.3,241.8L-124.3,241.8l0.1,0.2l0.1-0.1c-0.1,0,0,0-0.1,0.1
			C-124.2,241.8-124.1,241.8-124.3,241.8 M-122.2,241.8L-122.2,241.8L-122.2,241.8 M-124.1,241.7v0.1V241.7 M-123.8,241.7
			c0,0.1,0.1,0,0.2,0H-123.8 M-124.7,240.2c-0.3,0.2-0.1,0.3-0.1,0.2v-0.1L-124.7,240.2v0.1V240.2 M-122,240.2v0.2
			c0.1-0.1,0.1-0.2,0.1-0.3L-122,240.2 M-125.4,240L-125.4,240c-0.1,0.2,0,0.2,0,0.2V240 M-125,240v-0.1V240 M-125.7,239.9
			L-125.7,239.9L-125.7,239.9 M-124.8,239.7v0.2c0,0.1,0.1,0,0.1,0L-124.8,239.7h0.1c-0.1,0.1,0.1,0,0.1,0
			C-124.7,239.7-124.7,239.6-124.8,239.7 M-126.2,239.9L-126.2,239.9L-126.2,239.9 M-125.5,239.7c0.1,0.1,0,0.1,0,0.1v0.1h0.1
			l-0.1,0.1c0.3-0.1,0-0.1,0.1-0.2l-0.1,0.1V239.7 M-126.8,239.6C-126.7,239.6-126.8,239.6-126.8,239.6 M-123.6,239.5
			c-0.1,0.1,0,0.1-0.1,0.1c0,0,0.1,0.2,0.1,0.1l-0.1-0.1L-123.6,239.5 M-124.8,239.4v0.1V239.4v0.2
			C-124.9,239.5-124.8,239.4-124.8,239.4l-0.1,0.2l0.1-0.1V239.4 M-126.6,239.4L-126.6,239.4l-0.1,0.2c0,0-0.1,0.1,0,0.1v0.1v-0.1
			l0.1,0.2c0.1-0.2,0,0.2,0.1,0.2l0.1-0.1v0.1V240h-0.1l0.1-0.1v-0.1v0.1l-0.1-0.1c-0.1-0.1,0.1-0.1,0.1-0.2L-126.6,239.4
			 M-125.7,239.3C-125.6,239.3-125.7,239.4-125.7,239.3 M-126.8,239C-127,239-126.7,239.1-126.8,239 M-123.8,239
			C-123.8,239.1-123.7,239.2-123.8,239C-123.8,239-123.8,239.1-123.8,239 M-125.7,238.7l0.1,0.2l0.1-0.1c0.1,0.1,0.2,0,0.2,0.2h-0.1
			v0.1h-0.1c0.1,0.1,0.1,0.2,0,0.2v0.1l0.3-0.1l-0.2-0.1c0.1,0,0.1-0.2,0-0.3l-0.1-0.1v-0.1v0.1v-0.1H-125.7 M-125.5,238.6
			C-125.5,238.5-125.7,238.6-125.5,238.6 M-125.7,238.4v0.1V238.4 M-125.3,238.2C-125.3,238.4-125.2,238.2-125.3,238.2
			 M-120.3,256.6L-120.3,256.6L-120.3,256.6 M-118.2,253.6C-118.2,253.5-118.2,253.5-118.2,253.6 M-124.8,236.3v-3.5
			c0-0.4-0.3-0.7-0.7-0.7h-8.2c-0.4,0-0.7,0.3-0.7,0.7v18.4c0,0.5-0.4,0.6-0.6,0.2l-7.2-17.4l-0.3-0.7c-0.5-1.1-0.5-1.2-1.9-1.2
			h-8.9c-0.4,0-0.7,0.3-0.7,0.7v36.4c0,0.4,0.3,0.7,0.7,0.7h7.8c0.4,0,0.7-0.3,0.7-0.7v-18.4c0-0.5,0.4-0.6,0.6-0.2l7.2,17.4
			l0.3,0.7c0.2,0.7,0.9,1.2,1.6,1.2h5.5c2.3,0,4.2-1.9,4.2-4.2v-9.5c-0.1,0-0.2-0.1-0.3-0.1l-0.1-0.1l0.1,0.2h-0.2v-0.1v0.1l0.1-0.1
			h-0.2c0,0.2,0,0.3,0.1,0.2h0.1l0.1,0.1h-0.1l0.1,0.1c0,0-0.2,0-0.2-0.1v0.2v-0.1l-0.1,0.1l-0.1,0.1c-0.1,0.2,0,0.2,0,0.2h-0.3
			c-0.2,0-0.3,0.1-0.5,0.1l0.1-0.1l-0.1,0.1l-0.2-0.1h0.1c-0.1-0.1,0-0.3-0.2-0.3v0.2l-0.1-0.2l-0.1,0.1l-0.2,0.5v-0.1l0.1,0.1h-0.1
			l0.1,0.1l-0.1,0.4v-0.1c-0.2,0-0.2,0-0.2,0.2h-0.1v-0.1l-0.1,0.2h-0.1c0-0.1,0.1-0.3,0.1-0.4h-0.1l-0.2,0.2v-0.1l-0.1,0.3
			l-0.2,0.1v-0.1h-0.1c0,0.3,0.2,0.2,0,0.2l-0.1,0.1c-0.1,0.1-0.1,0.3-0.2,0.1c-0.1-0.2,0-0.3,0-0.3c0.1,0,0.1-0.3,0.2-0.4l-0.1,0.1
			v0.1v-0.1h-0.1c0,0-0.1-0.2-0.2-0.2c0-0.2-0.2-0.2-0.2-0.3l0.1-0.1l-0.1-0.2c0,0,0.1-0.1,0.2,0.1v-0.1c0.1-0.1,0.1-0.5,0.3-0.4
			c-0.2-0.2,0-0.4,0.1-0.5c0-0.1,0-0.5,0.2-0.3v-0.1h0.1v-0.1h0.1l-0.1-0.1l0.1-0.1h0.1h-0.3v-0.1v0.1v-0.2l0.3,0.1
			c0.1-0.1,0-0.2,0-0.2c0-0.1,0-0.2,0.1-0.3v0.1v-0.2v0.1l-0.1,0.1l-0.2,0.2v-0.1l-0.1,0.2h-0.1l-0.3,0.3v-0.1
			c-0.1,0.1-0.2,0.5-0.2,0.3l0.1,0.1c-0.1,0-0.2,0.1-0.1,0.2c-0.1-0.1,0,0.3-0.2,0.3c-0.1,0-0.1,0.2-0.2,0.3l-0.1-0.3h-0.1v0.1h-0.1
			c0,0.2-0.1,0.1-0.1,0.1h0.2v0.1l0.1-0.1v0.1h-0.1v0.1v-0.1v0.1h-0.2v-0.2h-0.1c0.1,0.1-0.1,0-0.1-0.1l-0.1-0.1l0.1-0.1h0.1v-0.2
			l0.1-0.2h0.1l0.1-0.1l-0.2,0.5l0.1-0.1l-0.1-0.3l-0.2,0.2c-0.2,0.2-0.4,0.3-0.3,0h0.1c0-0.1-0.2-0.4-0.1-0.4
			c-0.4-0.3,0-0.3,0.1-0.3c0,0,0.1-0.3,0.2-0.1c0.1-0.2,0.3-0.1,0.4,0h-0.1l0.1,0.2v-0.1l0.2-0.1h-0.1c0-0.1,0.1-0.1,0.1,0h0.1h-0.1
			c0,0,0.4-0.2,0.4-0.3l-0.1,0.1c0-0.1,0.1-0.1,0.1-0.1v-0.1h0.1v0.1c0.2-0.2,0.4,0,0.4-0.3h0.1v0.2l0.1-0.2
			c0.1,0.1,0.2-0.1,0.2-0.2c-0.2,0.1-0.5-0.1-0.6-0.1v-0.1h-0.2c0.1,0.1,0,0.1,0,0.2l0.1,0.1h-0.1l-0.2,0.1v-0.1h-0.1c0-0.1,0,0,0,0
			v-0.1c0,0-0.1,0,0,0.1h-0.1l0.2,0.1c0.1,0.1,0,0.3-0.1,0.1v-0.1l-0.1,0.1l0.1,0.2h-0.1l0.1-0.1l-0.1,0.1v0.2h-0.2
			c-0.1,0,0-0.3,0.1-0.3c0,0-0.1-0.3-0.1-0.1h0.1h-0.1v0.2v-0.1c0,0-0.2,0.1-0.1,0.1h-0.1v-0.2v0.1h-0.2c0,0.1-0.1,0-0.1,0.1v0.1
			l0.1,0.1c-0.1,0.1-0.1,0.2-0.2,0.3h-0.2l0.1-0.1h-0.4v-0.1v0.2v-0.1h0.1c0,0.1-0.2,0.2-0.2,0.2c0.1,0,0.1,0.1,0,0.2h-0.2v-0.3
			l0.1,0.1l-0.1-0.2h-0.1c0,0,0-0.2-0.1-0.1c0-0.1,0.1-0.1,0.1-0.1h0.1l-0.1-0.1h0.1c-0.1,0.1,0.1,0,0.1,0h-0.1c0.1-0.1,0-0.1,0-0.2
			c0,0.1,0.1,0.1,0.2,0.1v0.1v-0.1c0.1,0,0.2,0,0.2-0.1h0.1l-0.1-0.1l0.1-0.1h0.1h-0.1v-0.2v0.1c0,0.1-0.1,0.1-0.1,0.1h-0.1l0.1-0.1
			l-0.1,0.1h0.1v0.1c-0.1-0.1-0.2,0-0.2,0.1h-0.1c0-0.1-0.2-0.2,0-0.2c0-0.1-0.3-0.3-0.2-0.4c0-0.1-0.1-0.4-0.2-0.6h0.1
			c0-0.1,0.4-0.6,0.4-0.8h0.1c0,0,0-0.4,0.2-0.2h-0.1h0.1v-0.3l-0.1,0.1c0-0.1-0.2-0.2-0.2-0.4c0.2,0,0.3,0,0.4-0.1
			c0-0.2-0.1-0.1-0.1-0.2h0.1v-0.1c0.2,0.1,0.1,0,0.3,0.2c0.1,0.1,0.1,0,0.1-0.1h0.1v-0.4c0.2-0.1,0.2-0.3,0.2-0.5
			c-0.1-0.2,0.1-0.2,0.1-0.3c0,0,0.2,0.1,0.1-0.1v-0.1c-0.2,0.2,0.1-0.1,0-0.2h0.1c0,0,0.1,0.2,0.2,0.1c-0.1-0.1,0-0.1,0-0.2h0.1
			c-0.1,0.1,0.3,0.3,0.4,0.3v0.1h-0.2l0.1,0.1c0-0.1,0-0.1,0.1-0.1v-0.1h-0.1V250l0.1,0.1h0.1V250h0.1v0.1c0,0,0.1,0,0.1-0.1h-0.1
			c0.1,0,0.2,0.1,0.1-0.1h0.1c-0.1-0.1,0.1-0.1,0.2-0.1c0-0.1-0.2-0.2-0.2-0.1l0.1-0.1c0-0.1-0.1,0.1-0.1,0.1v-0.1h-0.1v0.2v-0.1
			v0.1h-0.2l-0.1,0.2c0,0.1-0.1-0.2-0.1-0.4c-0.1-0.2-0.1-0.5,0-0.3c0-0.1,0-0.2-0.1-0.2s-0.1,0-0.1-0.2h0.3h-0.1l0.3-0.3h0.1
			c0-0.2,0.3-0.1,0.3,0c0.1-0.1,0.5-0.1,0.6-0.1c0-0.1,0.1-0.3,0.1-0.2h0.1V248l0.3-0.2h-0.1h0.3l0.1-0.1h0.1v-0.1
			c0-0.1-0.2-0.1-0.3-0.1h0.1c0-0.2-0.3-0.3-0.2-0.2v-0.1v0.2c-0.1-0.1,0,0-0.1,0.1c-0.1,0-0.2-0.3-0.2-0.4c0.1,0,0.2-0.2,0.1-0.2
			v-0.1c0,0,0.3-0.4,0.4-0.6l0.1-0.1l0.1-0.1c-0.1-0.1,0,0-0.1-0.2h-0.1l0.1-0.1h-0.1c-0.1,0-0.2-0.1-0.3,0.1l0.1,0.1h-0.2v-0.1
			l-0.1,0.1v0.2c0-0.1-0.2,0-0.2,0.1s-0.3,0.1-0.3,0h0.2c-0.1,0,0.1-0.3,0-0.3v-0.1l-0.2,0.1c0.2,0,0,0.2-0.1,0.3h-0.2v0.2h-0.2
			c0,0,0-0.2-0.1-0.1v0.1c0-0.2-0.4,0.2-0.2,0.2c0.1,0.1-0.2,0.1-0.2,0.1v0.1l0.1-0.1v0.1v-0.1v0.1h-0.1l-0.1,0.1v0.2h-0.2
			c0.1,0,0.1-0.2,0.1-0.2h-0.1c0,0.3-0.2,0.2-0.2,0.1l-0.1,0.1h0.1l-0.1-0.1v0.2c0-0.1,0-0.2,0.1-0.2l-0.3,0.1l0.1,0.1h-0.2
			l-0.2-0.2l-0.1,0.1c-0.1-0.1,0.1-0.5,0.1-0.7v0.1c0-0.2,0-0.4,0.1-0.4l0.1-0.2c0.2,0,0.2,0.1,0.3,0.2c-0.1-0.1,0,0,0,0h0.2
			c0,0,0-0.1-0.1-0.1h-0.2l-0.1-0.1l0.1-0.1v-0.5c-0.1,0,0,0.1,0,0.1c-0.2-0.3-0.1-0.3,0-0.5h0.3v-0.4l0.1-0.1
			c0.1,0,0.1,0.1,0.1,0.2l0.2-0.1c0.1-0.1,0.2-0.1,0.2,0.1l0.1-0.2v0.1c0,0,0.1-0.2,0-0.2v0.1c0-0.2-0.2-0.3-0.1-0.5l0.2-0.3
			c0.1-0.1,0.2-0.1,0.4-0.3h-0.1h0.3l0.1-0.1c0,0.1,0.1,0.2,0.1,0.2v-0.1c0.1,0.1,0.1,0,0.1,0c0-0.1,0.4-0.2,0.4-0.2v-0.4v0.1
			l0.1-0.1l0.2-0.1c0-0.1,0.2-0.1,0.2-0.3l0.1,0.1l-0.1-0.2h0.1v0.1h0.1c0,0,0-0.1,0,0v0.1l0.1,0.1v-0.1c0-0.1-0.1-0.2,0-0.3
			c0,0-0.5,0.2-0.6,0.2l-0.1-0.1c0,0-0.5,0.3-0.6,0.1h0.1l-0.3-0.1v0.1v-0.5c0.1-0.1,0.3,0,0.3-0.2c0,0,0.3,0,0.3,0.2
			c0.3-0.5,0.3-0.4,0.3-0.6c0,0,0.2-0.1-0.1,0l-0.1,0.1V241l0.1,0.1l0.1-0.2v0.1v-0.1v0.1v-0.3l0.1,0.2l0.1-0.4h0.3l-0.1,0.1h0.2
			l-0.1-0.1l-0.1-0.1c0.1,0,0,0,0-0.1c0-0.1-0.1-0.1-0.1-0.1s-0.3-0.1-0.3-0.3c0.1,0.2,0.1-0.2,0.1-0.2c0,0.1-0.1,0.1-0.2,0h-0.1
			c0-0.1,0-0.2,0.1-0.3h-0.1c0-0.1,0-0.2-0.1-0.3c0.2,0,0-0.3-0.1-0.3c-0.1-0.3,0.2-0.2,0.3-0.4h-0.1c0-0.2,0.3-0.4,0.5-0.4l0.2,0.2
			h0.1c-0.2,0-0.2-0.4-0.1-0.5c0.2,0,0.5-0.3,0.7-0.3l0.1,0.1c0.1,0.1,0.2,0.2,0.2,0.1v0.1c0-0.1,0.4-0.1,0.3,0.2c0,0,0.1,0,0.1,0.1
			l0.1-0.1c0.1,0,0.5,0,0.5,0.1l0.1-0.2c0-0.1,0.1-0.2,0.1-0.2v0.1h0.1v-0.1v0.1h0.3c0.1,0,0.3,0,0.3-0.1c0,0.3,0.2,0.2,0.2,0.4
			v-0.1v0.1v-0.1l0.1,0.1c0,0-0.1,0.1,0,0.2c-0.1,0.1,0,0.2,0,0.3v-0.1l-0.1,0.2c-0.1-0.1-0.2,0-0.3,0c0,0.2,0.2,0.3-0.1,0.4h0.1
			h-0.1c0,0,0.6,0.5,0.2,0.5c0,0,0.3,0.2,0.3,0l0.3-0.3v0.1c0.1,0,0.1-0.3,0.1-0.3h0.1c0.1-0.1,0.2-0.1,0.2,0.1
			c0.1-0.1,0.1-0.1,0-0.2v-0.2l0.2-0.1v0.3c0,0-0.1,0.2,0,0.3c0,0,0.4-0.2,0.2-0.3h0.3c0.1,0.1,0.2,0.2,0.1,0.4c0,0-0.1,0.2-0.2,0.3
			h0.1c0,0-0.1,0,0,0.2l0.1-0.1v0.2c0,0.2,0.2,0,0.2,0.3c0-0.1,0.1,0.3,0.1,0.4l0.1-0.1c0.1,0.2,0,0.3-0.1,0.4
			c0.1,0.1,0.1,0.1,0.1,0.3v0.1l0.2,0.1c0.1,0,0,0.1,0.1,0.2c0,0.2-0.1,0.2-0.1,0.2l-0.3,0.6l-0.3-0.2v0.1h0.1v0.3
			c0,0.1,0.2,0,0.2-0.2l0.1,0.1c0-0.2,0.1-0.1,0.2-0.2c0.1,0.1,0.3,0,0.2,0c0.1-0.2,0.2-0.1,0.4-0.1v0.1l0.1-0.1h0.1
			c0,0.2,0.1,0.2,0.2,0c0.2,0,0,0.5,0.1,0.6c0,0.1,0,0,0,0v0.2h0.2l-0.1,0.2l-0.2,0.2l0.1,0.2c-0.1,0,0,0.1-0.1,0.2
			c-0.2-0.5-0.2-0.3-0.1-0.2v0.1c0-0.1,0.1-0.1-0.1-0.1l-0.1,0.1c-0.2,0,0,0.2,0,0.3c0.1-0.2,0.2-0.1,0.3-0.1h0.2c0,0.1,0.1,0,0.2,0
			h0.1v0.1c0.1-0.1,0.3,0,0.3-0.4c0.1,0,0.1,0,0.2-0.1v0.1h0.1v0.1h0.1v0.2c0,0,0,0.1-0.1,0.2c0,0.1-0.1,0.2-0.2,0.2
			c0.1,0.1,0,0,0,0.1l0.2,0.1c0.1,0.1,0.2,0.2,0.3-0.1l0.3-0.2l0.1,0.2l0.1-0.1v0.1v-0.1h0.1l-0.1,0.4l-0.1-0.1l-0.1,0.1h-0.1v0.1
			l-0.1,0.1h0.1c0,0.2,0.2,0.2,0.3,0.3c0,0.3-0.1,0.3-0.3,0.4h0.1c0-0.2-0.1,0-0.1,0c-0.1,0.1-0.2,0.3-0.4,0.3v0.2V246v0.4
			c0,0-0.1-0.2-0.1,0.1l-0.1-0.3v0.2c0-0.1-0.1-0.1-0.2-0.1c0.1,0.1,0,0.1,0.1,0.3h-0.2v-0.2v0.1v-0.2l-0.2,0.2l-0.1-0.2v0.2
			l0.1,0.1v-0.1l0.1,0.1l0.1-0.1v0.1h0.1c0,0,0.1,0.1,0,0h0.1v0.1l0.2-0.1v0.2c0.1-0.1,0.1,0,0.3,0.1l0.1-0.1c0,0.2,0,0.3-0.2,0.3
			c0.1,0.1-0.2,0.2-0.2,0.2c-0.1,0-0.1-0.1-0.1,0.1h-0.2v0.1h-0.1v0.1v-0.1c0,0,0.1,0.1,0.1,0c0.2,0.1-0.3,0.3,0.3,0.1l0.1,0.1
			l0.1,0.1l-0.1,0.4h0.1h-0.1v0.3c0.2-0.1,0.1,0.2,0,0.2v0.2c0.5,0.1-0.3,0.7-0.2,0.5v-0.3h-0.2c-0.3,0,0-0.1-0.1-0.2h-0.1v0.1h-0.1
			c0.1,0,0.1,0,0.1,0.1c-0.1,0-0.2,0-0.1,0.1h-0.1h0.1h-0.1c-0.1,0,0.1,0.2,0.2,0.1l0.1,0.2v0.1c0.1-0.2,0.1,0,0.2,0.1v-0.1
			c0,0-0.1,0.3-0.2,0.2l0.1,0.1c-0.1,0-0.2,0.1-0.1,0.1c0.1-0.1,0.1,0.1,0.1,0.2h-0.6V250h-0.1v-0.1l-0.1,0.1h0.1l-0.3,0.2v0.1h-0.1
			v0.1c0,0,0-0.2-0.1,0h-0.1v0.1h0.1v0.2h-0.1l-0.2,0.3h0.1h-0.2c0,0,0.1-0.1,0.1,0v0.1c0.1,0.1,0.1,0.2,0.2,0.1v0.1
			c0.1,0,0-0.2,0.1-0.1c0,0,0.1,0.3,0.1,0.1v0.1c0,0,0.4,0,0.3,0.2v0.1l0.1-0.1c0.1,0,0.4,0,0.5-0.1c0,0.1,0.1,0.1,0.2,0v0.2
			l0.1-0.2c0,0.2,0.1-0.1,0.2-0.1h0.1v0.4l0.1-0.1v0.2l-0.1,0.1h0.1v0.2l0.2,0.2c0.1-0.1-0.1-0.1,0.1-0.1c0,0.1,0.1,0,0.1-0.1v0.1
			h0.3c0.1,0-0.1,0.1,0,0v-0.1h0.1v0.1c0,0.1,0.2,0,0.1,0.1v-0.1l0.3,0.5v-0.1v0.2c-0.2,0.3-0.1,0.3-0.3,0.3h-0.1h0.1h-0.1
			c-0.1,0-0.1,0.1-0.3,0c-0.1,0-0.2,0.1-0.2,0.2v0.2c0,0-0.2,0.2-0.2,0.1v0.1l-0.1,0.1c0,0,0.2,0.1,0.2,0l0.1-0.1
			c0.1-0.1,0.1-0.2,0.2,0.1c0,0,0.1-0.2,0.1,0c0-0.1,0.1-0.1,0.1,0h0.1v-0.1v0.1v-0.1l0.1,0.1l0.2-0.1v0.1c0.1-0.2,0.4-0.4,0.5-0.4
			c0,0.2,0.3,0.1,0.2,0h0.2v0.5c-0.2,0-0.4,0-0.5,0.2h-0.2v0.2l-0.1,0.1v0.2h0.1v0.2l0.2,0.2v0.1v-0.1h-0.5l-0.3,0.3h-0.1l-0.1,0.1
			v-0.1h-0.2c-0.1,0.1-0.3,0.2-0.4,0.3l-0.1-0.2l-0.1-0.1l-0.1,0.1l-0.1,0.2v0.1l-0.1,0.1c0.1-0.1,0.1,0,0.1,0l-0.1,0.1v-0.1
			l-0.1-0.1v0.1l-0.1,0.1l-0.1-0.1h0.1h-0.1c0-0.1,0,0,0.1-0.1l-0.1-0.1c0,0.3-0.1,0.2,0.1,0.4h-0.2h0.1v0.1c-0.1,0,0,0.1,0,0.2
			v-0.1l-0.1,0.2c0.2,0.1,0.2,0.1,0.1,0.1l-0.2-0.1l-0.4-0.3c0.1-0.2,0-0.1,0-0.2c0-0.1-0.1-0.1,0.1-0.2v-0.1l-0.1,0.1v-0.1
			c-0.1,0-0.3-0.1-0.3-0.2h0.1v-0.1h0.1v-0.1l0.1,0.1l0.1,0.1v0.1c0.1-0.1,0-0.2,0-0.3h-0.1v-0.1v0.1l-0.1,0.1l0.1,0.1h-0.1v-0.1
			c0,0-0.1-0.1-0.1,0v-0.2l0.2-0.1h-0.1l0.1-0.1v-0.2c0.1-0.2-0.2-0.2-0.1-0.2h-0.1v-0.2c0.1,0,0.1-0.1,0-0.1v0.1
			c-0.1-0.2,0-0.1,0-0.4h-0.1l0.1,0.1c-0.1,0-0.5-0.2-0.4-0.4v0.1c0.1-0.1,0-0.1,0-0.1v-0.1l-0.2,0.2l0.1,0.3l-0.1,0.2h-0.1
			c0,0-0.5,0.3-0.4,0.1h-0.3c0-0.1-0.3-0.1-0.3,0v0.1h0.1l0.1,0.1l-0.1,0.1c0,0,0.1,0.1,0.1,0.2c0.2,0,0.3,0.1,0.6,0.2V255l0.1,0.1
			v0.1h0.3c-0.1,0.1,0.2,0.1,0.2,0.1l-0.1,0.2c0.1-0.1,0.3,0.2,0.1,0.2c0-0.1-0.1-0.2-0.2-0.2v-0.2l-0.1,0.1c0-0.1,0,0-0.1,0.1v-0.1
			l-0.2-0.1h-0.2h0.1h-0.1c0-0.1-0.1-0.1-0.2-0.1h0.1v0.1c0-0.1,0-0.2-0.2-0.2h-0.1v0.1h-0.1v0.1l-0.2,0.2c-0.1-0.2-0.3-0.2-0.4-0.1
			v-0.1l-0.2-0.1h-0.1v-0.1v0.1v-0.1l-0.3-0.1h-0.2h0.1l-0.2-0.1v0.2l-0.1,0.1v-0.1h-0.2v0.1h-0.1v0.2h0.1v0.1h-0.1
			c0,0.1,0,0.1,0.1,0.1l0.1,0.1h-0.1h0.2c0.1,0.1-0.1,0.2,0.1,0.3l-0.2,0.2l-0.1-0.1h-0.1V256l-0.1,0.1l-0.1,0.1v9.8
			c0,2.3,1.9,4.2,4.2,4.2h8.5c8.8,0,11.9-4.1,13-8c0.4-1.6,0.6-3.2,0.6-4.3v0.2v-2.4c0-0.4-0.3-0.7-0.7-0.7h-7.8
			c-0.4,0-0.7,0.3-0.7,0.7v0.3c0,3.6-0.5,5.2-4.3,5.2c-4,0-4.3-2.5-4.3-6.5v-7.6c0-4,0.3-6.5,4.2-6.5h0.1c3.9,0,4.3,1.6,4.3,5.4v0.4
			c0.1,0.3,0.4,0.6,0.7,0.6h7.7c0.3,0,0.6-0.2,0.7-0.5v-2.1c0-1-0.1-3.1-0.5-4.7c-1-3.8-3.9-7.9-12.3-8.1h-2.4
			C-120,231.2-123.1,233.5-124.8,236.3"/>
	</defs>
	<clipPath id="SVGID_2_">
		<use xlink:href="#SVGID_1_"  style="overflow:visible;"/>
	</clipPath>
	<path class="st1" d="M-154,231.2h55.9V270H-154V231.2z"/>
</g>
<g>
	<path class="st0" d="M-98.1,269.6l0.3-0.3c0.3,0.2,0.5,0.3,0.8,0.3c0.3,0,0.5-0.1,0.5-0.3v0c0-0.2-0.1-0.3-0.6-0.4
		c-0.6-0.1-0.9-0.3-0.9-0.8v0c0-0.5,0.4-0.8,0.9-0.8c0.4,0,0.7,0.1,1,0.3l-0.3,0.4c-0.2-0.2-0.5-0.3-0.7-0.3c-0.3,0-0.4,0.1-0.4,0.3
		v0c0,0.2,0.1,0.3,0.6,0.4c0.6,0.1,0.9,0.3,0.9,0.8v0c0,0.5-0.4,0.8-1,0.8C-97.4,270-97.8,269.9-98.1,269.6z"/>
	<path class="st0" d="M-95.5,267.3h0.5l0.8,1.3l0.8-1.3h0.5v2.7h-0.5V268l-0.8,1.3h0l-0.8-1.2v1.9h-0.5V267.3z"/>
</g>
</svg>
